<?xml version="1.0" standalone="no"?>
<!DOCTYPE svg PUBLIC "-//W3C//DTD SVG 1.1//EN" "http://www.w3.org/Graphics/SVG/1.1/DTD/svg11.dtd" >
<svg>
    <metadata>
        Created by FontForge 20090622 at Wed Jan 18 15:53:39 2017
        By deploy user
        Copyright (c) 1989, 1995 Adobe Systems Incorporated.  All Rights Reserved.
    </metadata>
    <defs>
        <font id="VAGRounded-Bold" horiz-adv-x="574" >
            <font-face 
                font-family="VAG Rounded Thin"
                font-weight="700"
                font-stretch="normal"
                units-per-em="1000"
                panose-1="2 11 8 0 0 0 0 0 0 0"
                ascent="690"
                descent="-310"
                x-height="532"
                cap-height="718"
                bbox="-151 -310 1060 939"
                underline-thickness="50"
                underline-position="-50"
                unicode-range="U+0020-U+FB02"
            />
            <missing-glyph horiz-adv-x="268" 
            />
            <glyph glyph-name=".notdef" horiz-adv-x="268" 
            />
            <glyph glyph-name=".null" horiz-adv-x="0" 
            />
            <glyph glyph-name="nonmarkingreturn" horiz-adv-x="333" 
            />
            <glyph glyph-name="space" unicode=" " horiz-adv-x="268" 
            />
            <glyph glyph-name="space" unicode="&#xa0;" horiz-adv-x="268" 
            />
            <glyph glyph-name="exclam" unicode="!" horiz-adv-x="334" 
                   d="M95 271v385q0 31 20.5 49.5t51.5 18.5t51.5 -19t20.5 -49v-385q0 -30 -20.5 -49t-51.5 -19t-51.5 18.5t-20.5 49.5zM167 -12q-32 0 -55 23t-23 55t23 55t55 23t55 -23t23 -55t-23 -55t-55 -23z" />
            <glyph glyph-name="quotedbl" unicode="&#x22;" horiz-adv-x="444" 
                   d="M253 494v170q0 27 16 43.5t44 16.5t44 -16.5t16 -43.5v-170q0 -27 -16 -43.5t-44 -16.5t-44 16.5t-16 43.5zM71 494v170q0 27 16 43.5t44 16.5t44 -16.5t16 -43.5v-170q0 -27 -16 -43.5t-44 -16.5t-44 16.5t-16 43.5z" />
            <glyph glyph-name="numbersign" unicode="#" horiz-adv-x="600" 
                   d="M148 299l16 114h-86q-23 0 -35.5 14t-12.5 34t12.5 34t35.5 14h100l22 161q4 26 15.5 37t34.5 11q19 0 32.5 -11.5t13.5 -28.5q0 -8 -2 -24l-20 -145h96l22 161q4 26 15.5 37t34.5 11q19 0 32.5 -11.5t13.5 -28.5q0 -8 -2 -24l-20 -145h86q23 0 35.5 -14t12.5 -34
t-12.5 -34t-35.5 -14h-100l-16 -114h86q23 0 35.5 -14t12.5 -34t-12.5 -34t-35.5 -14h-100l-22 -161q-4 -26 -15.5 -37t-34.5 -11q-19 0 -32.5 11.5t-13.5 28.5q0 8 2 24l20 145h-96l-22 -161q-4 -26 -15.5 -37t-34.5 -11q-19 0 -32.5 11.5t-13.5 28.5q0 8 2 24l20 145h-86
q-23 0 -35.5 14t-12.5 34t12.5 34t35.5 14h100zM261 413l-16 -114h95l16 114h-95z" />
            <glyph glyph-name="dollar" unicode="$" horiz-adv-x="537" 
                   d="M291 283v-146q31 7 48 29t17 52q0 43 -65 65zM237 462v114q-53 -14 -53 -61q0 -33 53 -53zM237 133v167q-5 2 -17 5q-37 11 -56.5 17.5t-51 22.5t-48 34t-29.5 48.5t-13 69.5q0 93 61.5 154t153.5 71v2v29q0 17 1 25t7 15t19 7t19 -7t7 -15t1 -25v-31q36 -1 73 -9.5
t69.5 -32t32.5 -56.5q0 -30 -18.5 -52t-48.5 -22q-18 0 -52 12.5t-56 14.5v-133l43.5 -13t43 -15.5t44.5 -21t36.5 -27.5t32 -37.5t19 -48t8.5 -61.5q0 -97 -65 -159t-162 -70v-3v-29q0 -15 -1 -23t-7 -16t-19 -8t-19 8t-7 16t-1 23v31q-49 1 -94 9.5t-84.5 34.5t-39.5 66
q0 30 18.5 50.5t48.5 20.5q22 0 72 -17.5t79 -20.5z" />
            <glyph glyph-name="percent" unicode="%" horiz-adv-x="722" 
                   d="M185 503q24 0 38 17t14 42t-14 42.5t-38 17.5t-38 -17.5t-14 -42.5t14 -42t38 -17zM149 74l331 624q10 19 19.5 25.5t26.5 6.5q24 0 41.5 -16.5t17.5 -39.5q0 -15 -8 -30l-336 -629q-1 -2 -4.5 -6.5t-4.5 -6t-4 -5t-4 -5t-4 -4t-5 -3t-5 -1.5t-6.5 -1.5t-7.5 -0.5
q-20 0 -38.5 16.5t-18.5 38.5q0 17 10 37zM185 401q-66 0 -110 47.5t-44 113.5t44 114t110 48t110 -48t44 -114t-44 -113.5t-110 -47.5zM537 -12q-66 0 -110 47.5t-44 113.5t44 114t110 48t110 -48t44 -114t-44 -113.5t-110 -47.5zM537 90q24 0 38 17t14 42t-14 42.5
t-38 17.5t-38 -17.5t-14 -42.5t14 -42t38 -17z" />
            <glyph glyph-name="ampersand" unicode="&#x26;" horiz-adv-x="704" 
                   d="M399 178l-145 161q-86 -55 -86 -121q0 -46 28.5 -72t75.5 -26q66 0 127 58zM396 392l105 -116l39 45q22 25 38 35.5t38 10.5t38.5 -17.5t16.5 -45.5q0 -33 -55 -95l-25 -27l68 -77q22 -25 22 -50q0 -26 -21 -46.5t-49 -20.5q-31 0 -53 23l-69 72q-108 -95 -220 -95
q-105 0 -175 57.5t-70 158.5q0 70 42 125t109 92q-66 66 -66 135q0 80 62.5 124t147.5 44q48 0 93 -16.5t78 -53.5t33 -87q0 -56 -36.5 -101.5t-90.5 -73.5zM385 552q0 30 -20.5 44t-45.5 14q-21 0 -40.5 -14.5t-19.5 -35.5q0 -22 11 -39t42 -47q73 36 73 78z" />
            <glyph glyph-name="quotesingle" unicode="'" horiz-adv-x="240" 
                   d="M60 494v170q0 27 16 43.5t44 16.5t44 -16.5t16 -43.5v-170q0 -27 -16 -43.5t-44 -16.5t-44 16.5t-16 43.5z" />
            <glyph glyph-name="parenleft" unicode="(" horiz-adv-x="241" 
                   d="M172 724q26 0 45 -16.5t19 -41.5q0 -17 -19 -66q-52 -161 -52 -315q0 -164 46 -296q25 -65 25 -79q0 -28 -18 -46t-46 -18q-30 0 -52 38q-37 63 -59 186.5t-22 214.5q0 94 27.5 236.5t72.5 189.5q12 13 33 13z" />
            <glyph glyph-name="parenright" unicode=")" horiz-adv-x="241" 
                   d="M69 -154q-26 0 -45 16.5t-19 41.5q0 17 19 66q52 161 52 315q0 164 -46 296q-25 65 -25 79q0 28 17.5 46t46.5 18q30 0 52 -38q37 -63 59 -186.5t22 -214.5q0 -94 -27.5 -236.5t-72.5 -189.5q-12 -13 -33 -13z" />
            <glyph glyph-name="asterisk" unicode="*" horiz-adv-x="389" 
                   d="M194 718q22 0 36.5 -11.5t14.5 -34.5q0 -9 -3.5 -32t-4.5 -31l19.5 14.5l18.5 14t15.5 8.5t17.5 4q22 0 37 -17.5t15 -40.5q0 -17 -10.5 -27.5t-38.5 -21.5t-31 -13q7 -3 25 -10t27.5 -12t18.5 -15.5t9 -23.5q0 -23 -15 -41t-37 -18q-8 0 -17.5 4t-16 9l-18.5 14.5
t-19 14.5q1 -8 4.5 -31t3.5 -32q0 -23 -14.5 -34.5t-36.5 -11.5t-36.5 11.5t-14.5 34.5q0 9 3.5 32t4.5 31q-8 -5 -20 -14.5t-19 -14.5t-16 -9t-17 -4q-22 0 -36 18t-14 41q0 13 9 23.5t18.5 15.5t27 12l24.5 10q-4 2 -31 13t-37.5 21.5t-10.5 27.5q0 23 14 40.5t36 17.5
q8 0 17 -4t15.5 -8.5l19.5 -14l20 -14.5q-1 8 -4.5 31t-3.5 32q0 23 14.5 34.5t36.5 11.5z" />
            <glyph glyph-name="plus" unicode="+" horiz-adv-x="600" 
                   d="M240 313v145q0 27 16 43.5t44 16.5t44 -16.5t16 -43.5v-145h145q28 0 44 -16.5t16 -43.5t-16 -43.5t-44 -16.5h-145v-145q0 -27 -16 -43.5t-44 -16.5t-44 16.5t-16 43.5v145h-145q-28 0 -44 16.5t-16 43.5t16 43.5t44 16.5h145z" />
            <glyph glyph-name="comma" unicode="," horiz-adv-x="268" 
                   d="M199 50l-84 -150q-8 -16 -25.5 -25t-31.5 -9q-27 0 -47.5 19.5t-20.5 46.5q0 14 12 40l83 150q9 16 26.5 25t31.5 9q27 0 48 -19.5t21 -46.5q0 -12 -13 -40z" />
            <glyph glyph-name="hyphen" unicode="-" horiz-adv-x="389" 
                   d="M88 353h213q57 -5 57 -64q0 -26 -15 -43t-42 -19h-213q-27 2 -42 19t-15 43q0 59 57 64z" />
            <glyph glyph-name="hyphen" unicode="&#xad;" horiz-adv-x="389" 
                   d="M88 353h213q57 -5 57 -64q0 -26 -15 -43t-42 -19h-213q-27 2 -42 19t-15 43q0 59 57 64z" />
            <glyph glyph-name="period" unicode="." horiz-adv-x="268" 
                   d="M56 66q0 32 23 55t55 23t55 -23t23 -55t-23 -55t-55 -23t-55 23t-23 55z" />
            <glyph glyph-name="slash" unicode="/" horiz-adv-x="407" 
                   d="M17 71l267 616q15 37 56 37q25 0 42 -16t17 -39q0 -7 -9 -28l-266 -616q-17 -37 -56 -37q-25 0 -42.5 16t-17.5 39q0 7 9 28z" />
            <glyph glyph-name="zero" unicode="0" 
                   d="M287 124q109 0 109 232t-109 232t-109 -232t109 -232zM287 -12q-72 0 -126 34t-83 90t-42.5 117t-13.5 127t13.5 127t42.5 117t83 90t126 34t126 -34t83 -90t42.5 -117t13.5 -127t-13.5 -127t-42.5 -117t-83 -90t-126 -34z" />
            <glyph glyph-name="one" unicode="1" horiz-adv-x="370" 
                   d="M152 72v502h-59q-34 0 -51 20.5t-17 48.5t18.5 48.5t49.5 20.5h142q31 0 49 -20t18 -51v-569q0 -37 -21 -57.5t-54 -20.5t-54 20.5t-21 57.5z" />
            <glyph glyph-name="two" unicode="2" 
                   d="M268 132h183q35 0 56.5 -16.5t21.5 -49.5t-20.5 -49.5t-51.5 -16.5h-334q-35 0 -56.5 16.5t-21.5 49.5q0 23 23 51l80 91.5l94 109t75 98.5q35 51 35 93q0 31 -21 54t-51 23q-32 0 -51 -16.5t-26.5 -40.5l-14.5 -48t-22.5 -40.5t-41.5 -16.5q-34 0 -53.5 21t-19.5 52
q0 93 70.5 160t164.5 67q95 0 158.5 -57.5t63.5 -150.5q0 -49 -28 -106.5t-57.5 -95t-83.5 -99t-71 -83.5z" />
            <glyph glyph-name="three" unicode="3" 
                   d="M271 724q100 0 156.5 -58t56.5 -125q0 -101 -82 -153q55 -25 88.5 -73t33.5 -106q0 -91 -73 -156t-179 -65q-104 0 -172 61t-68 127q0 28 24 47.5t53 19.5q22 0 38.5 -18.5t27 -40t36 -40t63.5 -18.5q39 0 66.5 27t27.5 66t-17.5 58t-42.5 23.5t-50 8t-42.5 18.5
t-17.5 47q0 29 14.5 44.5t35.5 20.5l42 10.5t35.5 22t14.5 47.5q0 29 -19.5 48t-52.5 19q-32 0 -54 -15.5t-31.5 -33.5t-26 -33.5t-38.5 -15.5q-29 0 -47 22t-18 52q0 59 68 110.5t150 51.5z" />
            <glyph glyph-name="four" unicode="4" 
                   d="M327 157h-241q-34 0 -52 18.5t-18 40.5q0 21 14 44l224 406q17 31 40.5 44.5t61.5 13.5q48 0 81.5 -32t33.5 -96v-307h17q30 0 50 -18.5t20 -47.5t-20 -47.5t-50 -18.5h-17v-85q0 -40 -17 -59t-55 -19t-55 19t-17 59v85zM327 289v279h-2l-135 -279h137z" />
            <glyph glyph-name="five" unicode="5" 
                   d="M250 574l-15 -106q48 10 75 10q89 0 148 -62t59 -151q0 -128 -69 -202.5t-196 -74.5q-39 0 -88.5 14.5t-90.5 46.5t-41 73q0 28 20 48t48 20q17 0 67.5 -32t87.5 -32q49 0 77.5 39.5t28.5 91.5q0 46 -25 73.5t-71 27.5q-30 0 -61.5 -16.5t-56.5 -16.5q-27 0 -43 16
t-16 31q0 1 3 34l25 211q8 57 24.5 76t53.5 19h241q34 0 53.5 -17.5t19.5 -45.5q0 -24 -8 -40.5t-20.5 -23t-22.5 -9t-19 -2.5h-188z" />
            <glyph glyph-name="six" unicode="6" 
                   d="M287 -12q-112 0 -181.5 72.5t-69.5 175.5t82 238.5t172 218.5q8 8 32 24q11 7 30 7q22 0 46.5 -23.5t24.5 -49.5q0 -15 -21 -41q-14 -17 -66.5 -75t-71.5 -85l2 -2q27 12 63 12q88 0 148.5 -67t60.5 -157q0 -100 -71.5 -174t-179.5 -74zM287 340q-42 0 -68.5 -29.5
t-26.5 -74.5q0 -44 26 -74t69 -30q42 0 68.5 30t26.5 74q0 43 -25 73.5t-70 30.5z" />
            <glyph glyph-name="seven" unicode="7" horiz-adv-x="538" 
                   d="M95 100l250 474h-256q-38 0 -56 20t-18 49t18 49t56 20h362q34 0 53 -24t19 -48q0 -18 -23 -66l-248 -504q-23 -46 -37.5 -61t-46.5 -15q-38 0 -60.5 23t-22.5 48q0 15 10 35z" />
            <glyph glyph-name="eight" unicode="8" 
                   d="M287 326q-42 0 -66.5 -28.5t-24.5 -71.5q0 -41 24 -70.5t67 -29.5q41 0 66 30t25 70q0 47 -24.5 73.5t-66.5 26.5zM287 -12q-105 0 -176 64.5t-71 163.5q0 115 107 173q-76 55 -76 143q0 86 62 139t154 53q90 0 153.5 -53t63.5 -139q0 -43 -20.5 -81.5t-56.5 -61.5
q51 -26 79 -70.5t28 -102.5q0 -102 -72 -165t-175 -63zM287 592q-34 0 -53 -21.5t-19 -54.5q0 -34 19 -55t53 -21t53.5 21t19.5 55q0 33 -19.5 54.5t-53.5 21.5z" />
            <glyph glyph-name="nine" unicode="9" 
                   d="M287 724q112 0 181.5 -72.5t69.5 -175.5t-82 -238.5t-172 -218.5q-8 -8 -32 -24q-11 -7 -30 -7q-22 0 -46.5 23.5t-24.5 49.5q0 15 21 41q14 17 66.5 75t71.5 85l-2 2q-27 -12 -63 -12q-88 0 -148.5 67t-60.5 157q0 100 71.5 174t179.5 74zM287 372q42 0 68.5 29.5
t26.5 74.5q0 44 -26 74t-69 30q-42 0 -68.5 -30t-26.5 -74q0 -43 25 -73.5t70 -30.5z" />
            <glyph glyph-name="colon" unicode=":" horiz-adv-x="268" 
                   d="M56 387q0 32 23 55t55 23t55 -23t23 -55t-23 -55t-55 -23t-55 23t-23 55zM56 66q0 32 23 55t55 23t55 -23t23 -55t-23 -55t-55 -23t-55 23t-23 55z" />
            <glyph glyph-name="semicolon" unicode=";" horiz-adv-x="268" 
                   d="M143 156q27 0 48 -19.5t21 -46.5q0 -12 -13 -40l-84 -150q-8 -16 -25.5 -25t-31.5 -9q-27 0 -47.5 19.5t-20.5 46.5q0 14 12 40l83 150q9 16 26.5 25t31.5 9zM56 387q0 32 23 55t55 23t55 -23t23 -55t-23 -55t-55 -23t-55 23t-23 55z" />
            <glyph glyph-name="less" unicode="&#x3c;" horiz-adv-x="600" 
                   d="M196 253l333 -139q36 -15 36 -51q0 -30 -14 -46.5t-34 -16.5q-19 0 -50 14l-395 182q-37 16 -37 57t37 57l395 181q31 15 50 15q20 0 34 -16.5t14 -46.5q0 -36 -36 -51z" />
            <glyph glyph-name="equal" unicode="=" horiz-adv-x="600" 
                   d="M95 425h410q28 0 44 -16.5t16 -43.5t-16 -43.5t-44 -16.5h-410q-28 0 -44 16.5t-16 43.5t16 43.5t44 16.5zM95 201h410q28 0 44 -16.5t16 -43.5t-16 -43.5t-44 -16.5h-410q-28 0 -44 16.5t-16 43.5t16 43.5t44 16.5z" />
            <glyph glyph-name="greater" unicode="&#x3e;" horiz-adv-x="600" 
                   d="M71 114l333 139l-333 139q-36 15 -36 51q0 30 14 46.5t34 16.5q19 0 50 -15l395 -181q37 -16 37 -57t-37 -57l-395 -182q-31 -14 -50 -14q-20 0 -34 16.5t-14 46.5q0 36 36 51z" />
            <glyph glyph-name="question" unicode="?" horiz-adv-x="481" 
                   d="M147 272v100q0 7 2 12.5t4.5 9.5t8.5 8t10 6t13 5t13 4t15 4t15 4q38 10 59 28t21 57q0 32 -25 54t-58 22q-28 0 -51.5 -15.5t-36.5 -34t-32.5 -34t-40.5 -15.5q-27 0 -44 19.5t-17 52.5q0 49 37.5 88.5t87 58t97.5 18.5q101 0 170 -58.5t69 -155.5q0 -80 -46 -131
t-127 -71v-36q0 -30 -20.5 -49.5t-51.5 -19.5q-33 0 -52.5 19t-19.5 50zM219 -12q-32 0 -55 23t-23 55t23 55t55 23t55 -23t23 -55t-23 -55t-55 -23z" />
            <glyph glyph-name="at" unicode="@" horiz-adv-x="800" 
                   d="M359 252q43 0 71.5 32.5t28.5 75.5q0 35 -20.5 60t-55.5 25q-38 0 -66 -34t-28 -73q0 -34 18.5 -60t51.5 -26zM400 724q93 0 177.5 -41t137.5 -115.5t53 -164.5q0 -46 -15.5 -86t-40.5 -66.5t-54 -47t-58.5 -31.5t-52 -16.5t-36.5 -5.5q-69 0 -69 49h-2q-41 -49 -105 -49
q-62 0 -105 53.5t-43 120.5q0 89 54.5 156t140.5 67q78 0 117 -60h2v12q0 48 56 48q20 0 33 -7.5t13 -20.5q0 -12 -4 -32l-40 -182q-4 -16 -4 -33q0 -21 23 -21q30 0 65 40t35 112q0 103 -82 167t-196 64q-116 0 -197 -81t-81 -197t81 -197t197 -81q120 0 208 47q6 3 31 23
t36 20q37 0 37 -37q0 -21 -27 -54q-98 -89 -285 -89q-152 0 -260 108t-108 260t108 260t260 108z" />
            <glyph glyph-name="A" unicode="A" horiz-adv-x="630" 
                   d="M9 97l201 544q13 36 41.5 59.5t65.5 23.5q38 0 66 -22.5t41 -60.5l196 -544q8 -21 8 -37q0 -29 -20.5 -47.5t-48.5 -18.5q-56 0 -73 52l-30 94h-278l-30 -93q-17 -53 -72 -53q-30 0 -52 20t-22 50q0 16 7 33zM316 568l-95 -290h190l-93 290h-2z" />
            <glyph glyph-name="B" unicode="B" 
                   d="M45 76v561q0 35 22 55t57 20h192q80 0 134 -49t54 -127q0 -103 -93 -147v-2q64 -9 108 -57t44 -113q0 -104 -63 -160.5t-169 -56.5h-206q-35 0 -57.5 20.5t-22.5 55.5zM195 580v-150h78q37 0 59 21t22 58q0 34 -23 52.5t-58 18.5h-78zM195 298v-166h118q42 0 68 23t26 64
q0 36 -27.5 57.5t-78.5 21.5h-106z" />
            <glyph glyph-name="C" unicode="C" horiz-adv-x="611" 
                   d="M17 356q0 158 96.5 263t247.5 105q31 0 65 -5.5t69.5 -17t58 -35t22.5 -54.5q0 -28 -17.5 -47.5t-44.5 -19.5q-15 0 -60.5 17.5t-92.5 17.5q-89 0 -138.5 -65t-49.5 -162q0 -94 49.5 -157.5t138.5 -63.5q47 0 95.5 21t63.5 21q30 0 48 -23t18 -45q0 -34 -24 -58.5
t-61.5 -36.5t-72.5 -17.5t-67 -5.5q-151 0 -247.5 105.5t-96.5 262.5z" />
            <glyph glyph-name="D" unicode="D" horiz-adv-x="667" 
                   d="M45 75v560q0 34 21.5 55.5t55.5 21.5h166q166 0 259 -99t93 -267q0 -157 -93.5 -251.5t-248.5 -94.5h-174q-30 0 -54.5 18t-24.5 57zM195 574v-436h101q93 0 140.5 60t47.5 155q0 101 -49.5 161t-148.5 60h-91z" />
            <glyph glyph-name="E" unicode="E" horiz-adv-x="463" 
                   d="M45 75v550q0 39 20 63t58 24h248q34 0 52.5 -20.5t18.5 -48.5t-19 -48.5t-52 -20.5h-176v-146h164q35 0 54 -20.5t19 -48.5t-19.5 -48.5t-53.5 -20.5h-164v-152h185q34 0 52.5 -20.5t18.5 -48.5t-19 -48.5t-52 -20.5h-258q-33 0 -55 21t-22 54z" />
            <glyph glyph-name="F" unicode="F" horiz-adv-x="444" 
                   d="M45 72v562q0 32 21 55t57 23h256q31 0 49 -20.5t18 -48.5t-17.5 -48.5t-49.5 -20.5h-184v-146h155q34 0 53 -20t19 -48t-19 -49t-53 -21h-155v-218q0 -37 -21 -57.5t-54 -20.5t-54 20.5t-21 57.5z" />
            <glyph glyph-name="G" unicode="G" horiz-adv-x="704" 
                   d="M429 422h170q46 0 67 -23.5t21 -72.5q0 -147 -89 -242.5t-237 -95.5q-151 0 -247.5 105.5t-96.5 262.5q0 158 96.5 263t247.5 105q111 0 193 -43.5t82 -97.5q0 -32 -17.5 -51t-44.5 -19q-22 0 -44 11.5t-39 25t-51.5 25t-78.5 11.5q-89 0 -138.5 -66.5t-49.5 -163.5
q0 -98 48.5 -164t139.5 -66q68 0 119 39.5t51 118.5h-102q-31 0 -50.5 19.5t-19.5 50.5t20.5 49.5t49.5 18.5z" />
            <glyph glyph-name="H" unicode="H" horiz-adv-x="704" 
                   d="M45 72v568q0 37 21 57.5t54 20.5t54 -20.5t21 -57.5v-212h314v212q0 37 21 57.5t54 20.5t54 -20.5t21 -57.5v-568q0 -37 -21 -57.5t-54 -20.5t-54 20.5t-21 57.5v218h-314v-218q0 -37 -21 -57.5t-54 -20.5t-54 20.5t-21 57.5z" />
            <glyph glyph-name="I" unicode="I" horiz-adv-x="240" 
                   d="M45 72v568q0 37 21 57.5t54 20.5t54 -20.5t21 -57.5v-568q0 -37 -21 -57.5t-54 -20.5t-54 20.5t-21 57.5z" />
            <glyph glyph-name="J" unicode="J" horiz-adv-x="407" 
                   d="M368 640v-440q0 -60 -17.5 -103.5t-48 -66t-63 -32.5t-69.5 -10q-28 0 -58 6t-59.5 18t-48 35.5t-18.5 54.5q0 22 16.5 41.5t39.5 19.5q19 0 58 -18.5t62 -18.5q20 0 32.5 8t17 23t5.5 25.5t1 27.5v430q0 37 21 57.5t54 20.5t54 -20.5t21 -57.5z" />
            <glyph glyph-name="K" unicode="K" horiz-adv-x="611" 
                   d="M45 66v578q0 31 21 52.5t54 21.5t54 -20t21 -54v-216l246 262q26 28 58 28q30 0 52 -20.5t22 -51.5t-49 -80l-189 -186l231 -241q42 -42 42 -76q0 -33 -22.5 -51t-55.5 -18q-20 0 -36 11t-40 36l-259 280v-255q0 -30 -21 -51t-54 -21t-54 19.5t-21 52.5z" />
            <glyph glyph-name="L" unicode="L" horiz-adv-x="426" 
                   d="M45 82v558q0 37 21 57.5t54 20.5t54 -20.5t21 -57.5v-502h178q36 0 54.5 -22t17.5 -50q-2 -27 -21.5 -46.5t-50.5 -19.5h-250q-36 0 -57 22t-21 60z" />
            <glyph glyph-name="M" unicode="M" horiz-adv-x="870" 
                   d="M25 83l93 558q5 29 32.5 53t65.5 24q36 0 63.5 -21.5t36.5 -50.5l118 -396h2l118 396q9 29 36.5 50.5t63.5 21.5q38 0 65.5 -24t32.5 -53l93 -558q1 -6 1 -17q0 -32 -20.5 -52t-51.5 -20q-37 0 -55 17t-23 53l-59 407h-2l-120 -419q-17 -58 -80 -58t-80 58l-120 419h-2
l-59 -407q-5 -36 -23 -53t-55 -17q-31 0 -51.5 20t-20.5 52q0 11 1 17z" />
            <glyph glyph-name="N" unicode="N" horiz-adv-x="685" 
                   d="M39 72v568q0 37 21 57.5t54 20.5q15 0 34 -10t29 -23l317 -423h2v378q0 37 21 57.5t54 20.5t54 -20.5t21 -57.5v-568q0 -37 -21 -57.5t-54 -20.5q-14 0 -33.5 10t-29.5 23l-317 418h-2v-373q0 -37 -21 -57.5t-54 -20.5t-54 20.5t-21 57.5z" />
            <glyph glyph-name="O" unicode="O" horiz-adv-x="722" 
                   d="M361 126q91 0 139.5 66t48.5 164q0 97 -49.5 163.5t-138.5 66.5t-138.5 -66.5t-49.5 -163.5q0 -98 48.5 -164t139.5 -66zM361 -12q-151 0 -247.5 105.5t-96.5 262.5q0 158 96.5 263t247.5 105q149 0 246.5 -107t97.5 -261q0 -157 -96 -262.5t-248 -105.5z" />
            <glyph glyph-name="P" unicode="P" horiz-adv-x="556" 
                   d="M45 72v562q0 36 20.5 57t57.5 21h177q111 0 183.5 -66.5t72.5 -172.5q0 -107 -72 -172t-178 -65h-111v-164q0 -37 -21 -57.5t-54 -20.5t-54 20.5t-21 57.5zM195 580v-212h102q46 0 74.5 30t28.5 76t-28.5 76t-74.5 30h-102z" />
            <glyph glyph-name="Q" unicode="Q" horiz-adv-x="722" 
                   d="M594 -16l-57 48q-77 -44 -176 -44q-151 0 -247.5 105.5t-96.5 262.5q0 158 96.5 263t247.5 105q149 0 246.5 -107t97.5 -261q0 -135 -67 -231l57 -49q35 -31 35 -61q0 -26 -21.5 -44.5t-47.5 -18.5q-29 0 -67 32zM476 267l49 -39q24 54 24 128q0 96 -49.5 163t-138.5 67
t-138.5 -66.5t-49.5 -163.5q0 -98 48.5 -164t139.5 -66q29 0 64 7l-36 35q-19 17 -19 40q0 30 19 51t49 21q18 0 38 -13z" />
            <glyph glyph-name="R" unicode="R" horiz-adv-x="556" 
                   d="M45 72v562q0 36 20 57t57 21h176q119 0 184 -55.5t65 -170.5q0 -79 -52 -127.5t-133 -61.5l170 -182q20 -21 20 -44q0 -30 -21.5 -53.5t-53.5 -23.5q-36 0 -58 26l-222 269h-2v-217q0 -37 -21 -57.5t-54 -20.5t-54 20.5t-21 57.5zM195 574v-177h103q42 0 67.5 24t25.5 65
q0 42 -25.5 65t-67.5 23h-103z" />
            <glyph glyph-name="S" unicode="S" horiz-adv-x="537" 
                   d="M270 724q35 0 76.5 -7.5t80.5 -32t39 -60.5q0 -30 -18.5 -52t-48.5 -22q-18 0 -59.5 15t-73.5 15q-34 0 -58 -17.5t-24 -47.5q0 -28 34.5 -45t83.5 -30t98 -33.5t83.5 -67.5t34.5 -119q0 -104 -74.5 -168t-181.5 -64q-35 0 -71.5 4.5t-78 15.5t-67.5 35t-26 57
q0 30 18.5 50.5t48.5 20.5q21 0 77 -19.5t91 -19.5q48 0 75 24t27 62q0 32 -34.5 51.5t-83.5 32t-98 30.5t-83.5 59.5t-34.5 105.5q0 102 72.5 164.5t175.5 62.5z" />
            <glyph glyph-name="T" unicode="T" horiz-adv-x="480" 
                   d="M165 72v502h-109q-34 0 -51 20.5t-17 48.5t18.5 48.5t49.5 20.5h368q31 0 49.5 -20.5t18.5 -48.5t-17 -48.5t-51 -20.5h-109v-502q0 -37 -21 -57.5t-54 -20.5t-54 20.5t-21 57.5z" />
            <glyph glyph-name="U" unicode="U" horiz-adv-x="685" 
                   d="M39 283v357q0 37 21 57.5t54 20.5t54 -20.5t21 -57.5v-349q0 -71 42 -118t112 -47q67 0 110 48.5t43 116.5v349q0 37 21 57.5t54 20.5t54 -20.5t21 -57.5v-357q0 -125 -89 -210t-214 -85q-127 0 -215.5 84.5t-88.5 210.5z" />
            <glyph glyph-name="V" unicode="V" horiz-adv-x="592" 
                   d="M222 52l-219 557q-7 18 -7 37q0 31 23 51.5t54 20.5q44 0 68 -49l155 -416l155 416q24 49 68 49q31 0 54 -20.5t23 -51.5q0 -19 -7 -37l-219 -557q-11 -28 -27.5 -43t-46.5 -15t-46.5 15t-27.5 43z" />
            <glyph glyph-name="W" unicode="W" horiz-adv-x="908" 
                   d="M139 72l-127 546q-4 17 -4 34q0 26 20 46t51 20q65 0 80 -72l85 -425h2l130 438q8 27 29 43t49 16t49 -16t29 -43l130 -438h2l85 425q15 72 80 72q31 0 51 -20t20 -46q0 -17 -4 -34l-127 -546q-8 -34 -33.5 -56t-65.5 -22q-36 0 -63 20.5t-36 52.5l-116 386h-2l-116 -386
q-9 -32 -36 -52.5t-63 -20.5q-40 0 -65.5 22t-33.5 56z" />
            <glyph glyph-name="X" unicode="X" horiz-adv-x="612" 
                   d="M21 115l198 266l-162 220q-16 21 -16 44q0 33 21.5 53t54.5 20q39 0 65 -37l124 -176l124 176q26 37 65 37q33 0 54.5 -20t21.5 -53q0 -23 -16 -44l-162 -220l198 -266q17 -23 17 -51q0 -31 -21.5 -50.5t-54.5 -19.5q-38 0 -62 33l-164 228l-164 -228q-24 -33 -62 -33
q-33 0 -54.5 19.5t-21.5 50.5q0 28 17 51z" />
            <glyph glyph-name="Y" unicode="Y" horiz-adv-x="536" 
                   d="M193 67v267l-189 266q-14 20 -14 45q0 30 20.5 51.5t51.5 21.5q41 0 62 -30l144 -209l144 209q21 30 62 30q31 0 51.5 -21.5t20.5 -51.5q0 -25 -14 -45l-189 -266v-267q0 -31 -19 -52t-56 -21t-56 21t-19 52z" />
            <glyph glyph-name="Z" unicode="Z" horiz-adv-x="593" 
                   d="M209 132h290q32 0 52 -17.5t20 -48.5q0 -28 -22 -47t-50 -19h-393q-39 0 -61.5 20t-22.5 52q0 30 20 58l322 450h-263q-31 0 -50.5 17t-19.5 47q0 28 20.5 48t49.5 20h366q41 0 62.5 -21.5t21.5 -50.5q0 -35 -22 -64z" />
            <glyph glyph-name="bracketleft" unicode="[" horiz-adv-x="278" 
                   d="M44 -82v734q0 33 20 52.5t53 19.5h100q24 0 38.5 -14t14.5 -43t-14.5 -43t-38.5 -14h-47v-650h47q24 0 38.5 -14t14.5 -43t-14.5 -43t-38.5 -14h-100q-33 0 -53 19.5t-20 52.5z" />
            <glyph glyph-name="backslash" unicode="\" horiz-adv-x="407" 
                   d="M123 687l267 -616q9 -21 9 -28q0 -23 -17.5 -39t-42.5 -16q-40 0 -55 37l-268 616q-8 22 -8 28q0 23 17 39t42 16q41 0 56 -37z" />
            <glyph glyph-name="bracketright" unicode="]" horiz-adv-x="278" 
                   d="M234 652v-734q0 -33 -20 -52.5t-53 -19.5h-100q-24 0 -38.5 14t-14.5 43t14.5 43t38.5 14h47v650h-47q-24 0 -38.5 14t-14.5 43t14.5 43t38.5 14h100q33 0 53 -19.5t20 -52.5z" />
            <glyph glyph-name="asciicircum" unicode="^" horiz-adv-x="600" 
                   d="M300 568l-125 -231q-16 -22 -51 -22q-22 0 -36.5 10.5t-14.5 29.5q0 16 13 40l161 293q15 30 53 30t53 -30l161 -293q13 -24 13 -40q0 -19 -14.5 -29.5t-36.5 -10.5q-35 0 -51 22z" />
            <glyph glyph-name="underscore" unicode="_" horiz-adv-x="500" 
                   d="M500 -125h-500q-29 0 -29 25t29 25h500q29 0 29 -25t-29 -25z" />
            <glyph glyph-name="grave" unicode="`" horiz-adv-x="222" 
                   d="M80 763l118 -48l8 -4q28 -15 28 -40q0 -27 -15.5 -50t-37.5 -23h-8t-4.5 0.5t-4.5 1t-4 1.5t-7.5 3l-11.5 4l-112 44q-41 15 -41 59q0 22 16.5 42t37.5 20q13 0 38 -10z" />
            <glyph glyph-name="a" unicode="a" 
                   d="M533 444v-356q0 -20 -1.5 -31.5t-7 -28.5t-21 -25.5t-39.5 -8.5q-30 0 -45.5 15t-23.5 46q-56 -67 -137 -67q-102 0 -170 78t-68 199q0 118 69.5 198.5t168.5 80.5q90 0 137 -66q3 26 23 43t46 17q24 0 39.5 -8.5t21 -25.5t7 -28.5t1.5 -31.5zM164 265q0 -57 29.5 -101
t84.5 -44q53 0 82 44t29 101q0 58 -29 102.5t-82 44.5q-55 0 -84.5 -44.5t-29.5 -102.5z" />
            <glyph glyph-name="b" unicode="b" 
                   d="M41 74v616q0 36 20 58t52 22t52 -22t20 -58v-196q58 50 137 50q109 0 170.5 -85.5t61.5 -199.5q0 -107 -66.5 -189t-170.5 -82q-39 0 -76 17t-56 49q-14 -60 -72 -60q-32 0 -52 22t-20 58zM185 270q0 -59 29 -104.5t84 -45.5q52 0 82 44.5t30 100.5q0 57 -30 102t-82 45
q-54 0 -83.5 -42t-29.5 -100z" />
            <glyph glyph-name="c" unicode="c" horiz-adv-x="463" 
                   d="M454 453q0 -25 -15.5 -47t-39.5 -22q-17 0 -53.5 14t-60.5 14q-58 0 -89.5 -43.5t-31.5 -103.5q0 -57 33 -101t88 -44q20 0 60.5 15t46.5 15q25 0 43.5 -18.5t18.5 -44.5q0 -34 -34.5 -58t-72.5 -32.5t-69 -8.5q-114 0 -186 81t-72 196q0 113 73.5 196t184.5 83
q24 0 52 -4.5t57 -14.5t48 -28.5t19 -43.5z" />
            <glyph glyph-name="d" unicode="d" 
                   d="M533 690v-616q0 -36 -20 -58t-52 -22q-58 0 -72 60q-19 -32 -56 -49t-76 -17q-104 0 -170.5 82t-66.5 189q0 114 61.5 199.5t170.5 85.5q79 0 137 -50v196q0 36 20 58t52 22t52 -22t20 -58zM389 270q0 58 -29.5 100t-83.5 42q-52 0 -82 -45t-30 -102q0 -56 30 -100.5
t82 -44.5q55 0 84 45.5t29 104.5z" />
            <glyph glyph-name="e" unicode="e" horiz-adv-x="537" 
                   d="M464 218h-307q7 -51 45 -77.5t91 -26.5q41 0 95 29t68 29q23 0 41 -19t18 -43q0 -45 -76.5 -83.5t-158.5 -38.5q-120 0 -195 78t-75 199q0 113 73.5 196t184.5 83t185 -82.5t74 -179.5q0 -64 -63 -64zM154 314h229q-6 49 -36 79.5t-79 30.5q-47 0 -78 -31.5t-36 -78.5z
" />
            <glyph glyph-name="f" unicode="f" horiz-adv-x="296" 
                   d="M74 74v332h-32q-29 0 -46 17t-17 46q0 27 18 45t45 18h32v74q0 78 41.5 121t109.5 43q100 0 100 -65q0 -61 -59 -61q-12 0 -18 -1t-14.5 -5.5t-12 -16t-3.5 -30.5v-59h45q73 0 73 -63t-73 -63h-45v-332q0 -36 -20 -58t-52 -22t-52 22t-20 58z" />
            <glyph glyph-name="g" unicode="g" 
                   d="M533 458v-416q0 -126 -75 -193t-202 -67q-36 0 -85.5 9.5t-95.5 36t-46 62.5q0 21 18.5 42t39.5 21q18 0 76 -22.5t104 -22.5q54 0 88 30.5t34 83.5v34h-2q-46 -68 -145 -68q-107 0 -164.5 80t-57.5 196q0 113 66 196.5t171 83.5q39 0 76 -17t56 -49q14 60 72 60
q32 0 52 -22t20 -58zM389 262q0 59 -29 104.5t-84 45.5q-52 0 -82 -44.5t-30 -100.5q0 -62 29.5 -104.5t82.5 -42.5q54 0 83.5 42t29.5 100z" />
            <glyph glyph-name="h" unicode="h" horiz-adv-x="556" 
                   d="M41 74v616q0 36 20 58t52 22t52 -22t20 -58v-196h2q41 50 131 50q87 0 142 -52t55 -142v-276q0 -36 -20 -58t-52 -22t-52 22t-20 58v251q0 48 -26.5 73.5t-67.5 25.5q-43 0 -67.5 -28t-24.5 -71v-251q0 -36 -20 -58t-52 -22t-52 22t-20 58z" />
            <glyph glyph-name="i" unicode="i" horiz-adv-x="222" 
                   d="M39 74v384q0 36 20 58t52 22t52 -22t20 -58v-384q0 -36 -20 -58t-52 -22t-52 22t-20 58zM111 754q32 0 56.5 -24t24.5 -55q0 -34 -23.5 -58.5t-57.5 -24.5q-32 0 -56.5 25t-24.5 58q0 31 24.5 55t56.5 24z" />
            <glyph glyph-name="j" unicode="j" horiz-adv-x="222" 
                   d="M39 -138v596q0 36 20 58t52 22t52 -22t20 -58v-596q0 -36 -20 -58t-52 -22t-52 22t-20 58zM111 754q32 0 56.5 -24t24.5 -55q0 -34 -23.5 -58.5t-57.5 -24.5q-32 0 -56.5 25t-24.5 58q0 31 24.5 55t56.5 24z" />
            <glyph glyph-name="k" unicode="k" horiz-adv-x="500" 
                   d="M41 74v616q0 36 20 58t52 22t52 -22t20 -58v-336l158 153q32 31 65 31q26 0 43.5 -20t17.5 -45q0 -32 -28 -57l-128 -114l169 -198q18 -21 18 -48q0 -28 -20 -48t-48 -20q-33 0 -69 44l-176 217h-2v-175q0 -36 -20 -58t-52 -22t-52 22t-20 58z" />
            <glyph glyph-name="l" unicode="l" horiz-adv-x="222" 
                   d="M39 74v616q0 36 20 58t52 22t52 -22t20 -58v-616q0 -36 -20 -58t-52 -22t-52 22t-20 58z" />
            <glyph glyph-name="m" unicode="m" horiz-adv-x="852" 
                   d="M41 74v384q0 36 20 58t52 22q58 0 66 -54q55 60 134 60q91 0 149 -73q29 34 71.5 53.5t80.5 19.5q90 0 143.5 -50.5t53.5 -143.5v-276q0 -36 -20 -58t-52 -22t-52 22t-20 58v251q0 44 -22.5 71.5t-61.5 27.5t-62 -27.5t-23 -71.5v-251q0 -36 -20 -58t-52 -22t-52 22
t-20 58v251q0 44 -22.5 71.5t-61.5 27.5q-43 0 -64 -26.5t-21 -72.5v-251q0 -36 -20 -58t-52 -22t-52 22t-20 58z" />
            <glyph glyph-name="n" unicode="n" horiz-adv-x="556" 
                   d="M41 74v384q0 36 20 58t52 22q58 0 66 -53q42 59 139 59q87 0 142 -52t55 -142v-276q0 -36 -20 -58t-52 -22t-52 22t-20 58v251q0 48 -26.5 73.5t-67.5 25.5q-43 0 -67.5 -28t-24.5 -71v-251q0 -36 -20 -58t-52 -22t-52 22t-20 58z" />
            <glyph glyph-name="o" unicode="o" horiz-adv-x="556" 
                   d="M278 544q111 0 184.5 -83t73.5 -196q0 -115 -72 -196t-186 -81t-186 81t-72 196q0 113 73.5 196t184.5 83zM278 412q-55 0 -84.5 -44.5t-29.5 -102.5q0 -57 29.5 -101t84.5 -44t84.5 44t29.5 101q0 58 -29.5 102.5t-84.5 44.5z" />
            <glyph glyph-name="p" unicode="p" 
                   d="M41 -138v596q0 36 20 58t52 22q58 0 72 -60q19 32 57 49t80 17q109 0 170.5 -85.5t61.5 -199.5q0 -107 -66.5 -189t-170.5 -82q-74 0 -132 50v-176q0 -36 -20 -58t-52 -22t-52 22t-20 58zM185 270q0 -59 29 -104.5t84 -45.5q52 0 82 44.5t30 100.5q0 57 -30 102t-82 45
q-54 0 -83.5 -42t-29.5 -100z" />
            <glyph glyph-name="q" unicode="q" 
                   d="M533 458v-596q0 -36 -20 -58t-52 -22t-52 22t-20 58v176q-58 -50 -132 -50q-104 0 -170.5 82t-66.5 189q0 114 61.5 199.5t170.5 85.5q42 0 80 -17t57 -49q14 60 72 60q32 0 52 -22t20 -58zM389 270q0 58 -29.5 100t-83.5 42q-52 0 -82 -45t-30 -102q0 -56 30 -100.5
t82 -44.5q55 0 84 45.5t29 104.5z" />
            <glyph glyph-name="r" unicode="r" horiz-adv-x="333" 
                   d="M39 74v392q0 34 22.5 53t51.5 19q70 0 70 -60h2q41 60 101 60q29 0 49.5 -20t20.5 -57q0 -17 -8.5 -28.5t-17 -16t-30 -13t-30.5 -12.5q-23 -11 -33 -16.5t-25.5 -17t-22 -27t-6.5 -35.5v-221q0 -36 -20 -58t-52 -22t-52 22t-20 58z" />
            <glyph glyph-name="s" unicode="s" horiz-adv-x="426" 
                   d="M403 440q0 -25 -17 -44.5t-42 -19.5q-11 0 -57 21t-72 21q-21 0 -35 -10t-14 -30q0 -18 26 -32.5t62.5 -27.5t73 -31t62.5 -51t26 -79q0 -73 -56.5 -121t-148.5 -48q-67 0 -134 32.5t-67 78.5q0 20 17.5 42t44.5 22q26 0 70 -24.5t79 -24.5q32 0 44.5 10t12.5 31
q0 18 -26 32t-62.5 27.5t-73 31t-62.5 51t-26 79.5q0 75 54.5 121.5t140.5 46.5q39 0 78.5 -10.5t70.5 -35.5t31 -58z" />
            <glyph glyph-name="t" unicode="t" horiz-adv-x="296" 
                   d="M76 74v332h-32q-29 0 -46 17t-17 46q0 27 18 45t45 18h32v86q0 36 20 58t52 22t52 -22t20 -58v-86h41q30 0 49.5 -15.5t19.5 -47.5t-19.5 -47.5t-49.5 -15.5h-41v-332q0 -36 -20 -58t-52 -22t-52 22t-20 58z" />
            <glyph glyph-name="u" unicode="u" horiz-adv-x="556" 
                   d="M41 198v260q0 36 20 58t52 22t52 -22t20 -58v-257q0 -43 27.5 -68t65.5 -25t65.5 25t27.5 68v257q0 36 20 58t52 22t52 -22t20 -58v-260q0 -97 -62 -153.5t-175 -56.5t-175 56.5t-62 153.5z" />
            <glyph glyph-name="v" unicode="v" horiz-adv-x="462" 
                   d="M153 54l-145 372q-9 23 -9 42q0 33 22 51.5t53 18.5q48 0 64 -51l92 -284h2l92 284q16 51 64 51q31 0 53 -18.5t22 -51.5q0 -19 -9 -42l-145 -372q-12 -31 -28 -45.5t-50 -14.5t-50 14.5t-28 45.5z" />
            <glyph glyph-name="w" unicode="w" horiz-adv-x="778" 
                   d="M144 67l-122 345q-15 44 -15 68t20.5 41t51.5 17q26 0 44 -15.5t24 -41.5l83 -275h2l84 269q18 63 73 63t73 -63l84 -269h2l83 275q6 26 24 41.5t44 15.5q32 0 52 -19t20 -51q0 -10 -14 -54l-123 -347q-26 -73 -87 -73q-62 0 -83 67l-74 232h-2l-74 -232q-21 -67 -83 -67
q-61 0 -87 73z" />
            <glyph glyph-name="x" unicode="x" horiz-adv-x="500" 
                   d="M20 113l146 166l-122 137q-22 26 -22 52q0 28 23 49t51 21q30 0 53 -28l101 -126l101 126q23 28 53 28q28 0 51 -21t23 -49q0 -26 -22 -52l-122 -137l146 -166q20 -22 20 -49q0 -31 -19.5 -50.5t-51.5 -19.5q-22 0 -34 7.5t-26 24.5l-119 146l-119 -146
q-9 -11 -15.5 -16.5t-18 -10.5t-26.5 -5q-32 0 -51.5 19.5t-19.5 50.5q0 27 20 49z" />
            <glyph glyph-name="y" unicode="y" horiz-adv-x="481" 
                   d="M164 42l-159 397q-7 19 -7 37q0 26 22 44t46 18q53 0 72 -51l99 -271l106 271q19 51 72 51q24 0 46 -18t22 -44q0 -22 -7 -37l-241 -600q-23 -57 -68 -57q-35 0 -55 18.5t-20 43.5q0 19 9 42z" />
            <glyph glyph-name="z" unicode="z" horiz-adv-x="481" 
                   d="M24 88l226 318h-167q-28 0 -46.5 17t-18.5 46t18.5 46t46.5 17h327q9 0 18.5 -2.5t19 -13.5t9.5 -29q0 -23 -15 -43l-227 -318h190q28 0 46.5 -17t18.5 -46t-18.5 -46t-46.5 -17h-335q-25 0 -42 12.5t-17 36.5q0 18 13 39z" />
            <glyph glyph-name="braceleft" unicode="{" horiz-adv-x="333" 
                   d="M86 -23v194q0 41 -12.5 53.5t-35.5 12.5t-35.5 14t-12.5 34t12.5 34t35.5 14t35.5 12.5t12.5 53.5v194q0 131 133 131h62q20 0 32.5 -11.5t12.5 -33.5t-12.5 -33.5t-32.5 -11.5h-25q-44 0 -44 -58v-189q0 -32 -11 -53.5t-31 -30.5t-33 -12t-33 -5v-2q20 -2 33 -5t33 -12
t31 -30.5t11 -53.5v-189q0 -58 44 -58h25q20 0 32.5 -11.5t12.5 -33.5t-12.5 -33.5t-32.5 -11.5h-62q-133 0 -133 131z" />
            <glyph glyph-name="bar" unicode="|" horiz-adv-x="222" 
                   d="M51 -250v1000q0 27 16 43.5t44 16.5t44 -16.5t16 -43.5v-1000q0 -27 -16 -43.5t-44 -16.5t-44 16.5t-16 43.5z" />
            <glyph glyph-name="braceright" unicode="}" horiz-adv-x="333" 
                   d="M247 593v-194q0 -41 12.5 -53.5t35.5 -12.5t35.5 -14t12.5 -34t-12.5 -34t-35.5 -14t-35.5 -12.5t-12.5 -53.5v-194q0 -131 -133 -131h-62q-20 0 -32.5 11.5t-12.5 33.5t12.5 33.5t32.5 11.5h25q44 0 44 58v189q0 32 11 53.5t31 30.5t33 12t33 5v2q-20 2 -33 5t-33 12
t-31 30.5t-11 53.5v189q0 58 -44 58h-25q-20 0 -32.5 11.5t-12.5 33.5t12.5 33.5t32.5 11.5h62q133 0 133 -131z" />
            <glyph glyph-name="asciitilde" unicode="~" horiz-adv-x="600" 
                   d="M405 279q29 0 60.5 30.5t50.5 30.5q22 0 32.5 -14.5t10.5 -34.5q0 -50 -42 -91t-110 -41q-40 0 -114.5 34t-97.5 34q-29 0 -60.5 -30.5t-50.5 -30.5q-22 0 -32.5 14.5t-10.5 34.5q0 50 42 91t110 41q40 0 114.5 -34t97.5 -34z" />
            <glyph glyph-name="exclamdown" unicode="&#xa1;" horiz-adv-x="334" 
                   d="M95 -124v385q0 31 20.5 49.5t51.5 18.5t51.5 -19t20.5 -49v-385q0 -30 -20.5 -49t-51.5 -19t-51.5 18.5t-20.5 49.5zM167 544q32 0 55 -23t23 -55t-23 -55t-55 -23t-55 23t-23 55t23 55t55 23z" />
            <glyph glyph-name="cent" unicode="&#xa2;" horiz-adv-x="463" 
                   d="M238 132v269q-36 -15 -55 -52.5t-19 -83.5q0 -43 19.5 -80.5t54.5 -52.5zM292 411v-291q20 2 57 16t43 14q25 0 43.5 -18.5t18.5 -44.5q0 -25 -16.5 -44.5t-42.5 -30.5t-52.5 -17t-50.5 -7v-23q0 -15 -1 -23t-7 -16t-19 -8t-19 8t-7 16t-1 23v27q-101 14 -159.5 90.5
t-58.5 186.5q0 104 60 180t158 91v28q0 17 1 25t7 15t19 7t19 -7t7 -15t1 -25v-24q32 -1 67 -9t65 -30t30 -52q0 -26 -15.5 -48.5t-39.5 -22.5q-17 0 -51 13.5t-56 15.5z" />
            <glyph glyph-name="sterling" unicode="&#xa3;" horiz-adv-x="611" 
                   d="M273 424h152q32 0 52 -18.5t20 -50.5t-20 -50.5t-52 -18.5h-129q0 -78 -51 -148h278q32 0 52 -18.5t20 -50.5t-20 -50.5t-52 -18.5h-392q-37 0 -57.5 21t-20.5 57q0 15 21.5 41.5t43.5 69.5t22 97h-52q-32 0 -52 18.5t-20 50.5t20 50.5t52 18.5h21q-10 19 -18 52t-8 54
q0 87 73.5 140.5t178.5 53.5q106 0 179.5 -49.5t73.5 -123.5q0 -34 -22 -55t-56 -21q-22 0 -40.5 16.5t-30.5 36t-37.5 36t-60.5 16.5q-40 0 -68 -20.5t-28 -56.5q0 -31 13 -53z" />
            <glyph glyph-name="currency" unicode="&#xa4;" horiz-adv-x="600" 
                   d="M300 109q-91 0 -142 46l-57 -59q-11 -12 -29 -12q-22 0 -34 16q-12 17 -12 36q0 9 14 23l58 58q-46 52 -46 139q0 96 46 141l-58 58q-12 12 -14 23q0 22 12 36q12 16 34 16q18 0 29 -12l57 -57q54 44 142 44t142 -44l57 57q11 12 29 12q22 0 34 -16q12 -17 12 -36
q0 -9 -14 -23l-58 -58q46 -45 46 -141q0 -87 -46 -139l58 -58q14 -14 14 -23q0 -19 -12 -36q-12 -16 -34 -16q-18 0 -29 12l-57 59q-51 -46 -142 -46zM300 491q-55 0 -91.5 -38.5t-36.5 -96.5q0 -57 36.5 -95t91.5 -38t91.5 38t36.5 95q0 58 -36.5 96.5t-91.5 38.5z" />
            <glyph glyph-name="yen" unicode="&#xa5;" 
                   d="M212 67v121h-142q-19 0 -33.5 12t-14.5 30t14.5 30t33.5 12h142v68h-142q-19 0 -33.5 12t-14.5 30t14.5 30t33.5 12h81l-127 176q-14 20 -14 45q0 30 20.5 51.5t51.5 21.5q41 0 62 -30l143 -209l143 209q21 30 62 30q31 0 51.5 -21.5t20.5 -51.5q0 -25 -14 -45l-127 -176
h81q19 0 33.5 -12t14.5 -30t-14.5 -30t-33.5 -12h-142v-68h142q19 0 33.5 -12t14.5 -30t-14.5 -30t-33.5 -12h-142v-121q0 -31 -18.5 -52t-56.5 -21t-56.5 21t-18.5 52z" />
            <glyph glyph-name="brokenbar" unicode="&#xa6;" horiz-adv-x="222" 
                   d="M51 385v230q0 27 16 43.5t44 16.5t44 -16.5t16 -43.5v-230q0 -27 -16 -43.5t-44 -16.5t-44 16.5t-16 43.5zM51 -115v230q0 27 16 43.5t44 16.5t44 -16.5t16 -43.5v-230q0 -27 -16 -43.5t-44 -16.5t-44 16.5t-16 43.5z" />
            <glyph glyph-name="section" unicode="&#xa7;" 
                   d="M280 724q50 0 103 -12.5t98.5 -48t45.5 -87.5q0 -28 -20 -49.5t-47 -21.5q-20 0 -40 13.5t-34.5 30t-38 30t-49.5 13.5q-30 0 -52 -19.5t-22 -49.5q0 -25 20 -40t70.5 -33t75.5 -31q77 -32 120.5 -69.5t43.5 -100.5q0 -61 -25.5 -100.5t-80.5 -77.5q43 -56 43 -105
q0 -84 -62 -134t-149 -50q-90 0 -169 46.5t-79 104.5q0 32 23.5 53.5t56.5 21.5q15 0 28.5 -9.5t25 -23.5l24 -28t31.5 -23.5t41 -9.5q27 0 50 15.5t23 41.5q0 14 -7 26t-15.5 20t-27.5 17.5t-31 14.5t-38 14.5t-38 14.5q-73 29 -115.5 69t-42.5 112q0 56 21.5 95t67.5 77
q-25 27 -36 50t-11 55q0 87 63 137.5t155 50.5zM221 209l126 -53q51 30 51 73q0 47 -74 75l-110 43q-44 -33 -44 -71q0 -43 51 -67z" />
            <glyph glyph-name="dieresis" unicode="&#xa8;" horiz-adv-x="222" 
                   d="M149 675q0 30 21 51t51 21t51 -21t21 -51t-21 -51t-51 -21t-51 21t-21 51zM-71 675q0 30 21 51t51 21t51 -21t21 -51t-21 -51t-51 -21t-51 21t-21 51z" />
            <glyph glyph-name="copyright" unicode="&#xa9;" horiz-adv-x="800" 
                   d="M536 389q-8 0 -14 1t-11 4.5t-8 5t-7 7.5l-5 7.5t-5 10t-4 9.5q-24 38 -79 38q-44 0 -67.5 -31t-23.5 -85t23.5 -85t67.5 -31q55 0 79 38q1 2 4 8.5t4 8.5t4 7t5 7t6 5.5t8.5 5t10 2.5t12.5 1q24 -4 32 -15t8 -39q0 -38 -50.5 -78.5t-122.5 -40.5q-91 0 -145 58t-54 148
t54 148t145 58q72 0 122.5 -40.5t50.5 -78.5q0 -28 -8 -39t-32 -15zM32 356q0 152 108 260t260 108t260 -108t108 -260t-108 -260t-260 -108t-260 108t-108 260zM122 356q0 -116 81 -197t197 -81t197 81t81 197t-81 197t-197 81t-197 -81t-81 -197z" />
            <glyph glyph-name="ordfeminine" unicode="&#xaa;" horiz-adv-x="373" 
                   d="M346 670v-235q0 -44 -44 -44q-41 0 -45 39q-37 -39 -82 -39q-71 0 -116.5 46.5t-45.5 119.5q0 71 45 119t110 48q59 0 89 -39q4 39 45 39q44 0 44 -54zM181 469q34 0 51.5 26.5t17.5 61.5q0 36 -17.5 62.5t-51.5 26.5q-35 0 -53.5 -27t-18.5 -62t18.5 -61.5t53.5 -26.5z
" />
            <glyph glyph-name="guillemotleft" unicode="&#xab;" horiz-adv-x="500" 
                   d="M265 341l97 137q15 17 43 17q26 0 42 -16t16 -39t-11 -38l-79 -121l79 -119q11 -16 11 -34q0 -27 -16.5 -45t-43.5 -18q-33 0 -50 25l-103 159q-9 13 -9 36q0 22 24 56zM61 341l97 137q15 17 43 17q26 0 42 -16t16 -39t-11 -38l-79 -121l79 -119q11 -16 11 -34
q0 -27 -16.5 -45t-43.5 -18q-33 0 -50 25l-103 159q-9 13 -9 36q0 22 24 56z" />
            <glyph glyph-name="logicalnot" unicode="&#xac;" horiz-adv-x="600" 
                   d="M95 425h410q28 0 44 -16.5t16 -43.5v-227q0 -27 -16 -43.5t-44 -16.5t-44 16.5t-16 43.5v167h-350q-28 0 -44 16.5t-16 43.5t16 43.5t44 16.5z" />
            <glyph glyph-name="registered" unicode="&#xae;" horiz-adv-x="800" 
                   d="M342 316v-118q0 -48 -45 -48q-25 0 -35 11.5t-10 36.5v309q0 42 46 42h113q149 0 149 -117q0 -105 -100 -110l71 -116q6 -12 6 -21q0 -35 -47 -35q-5 0 -9.5 0.5t-9 3t-7 3.5t-6.5 5l-5.5 5.5t-5 7.5t-4 7t-4.5 8t-4 8l-63 118h-30zM342 388h75q27 0 40 9.5t13 34.5
q0 26 -13 35.5t-40 9.5h-75v-89zM32 356q0 152 108 260t260 108t260 -108t108 -260t-108 -260t-260 -108t-260 108t-108 260zM122 356q0 -116 81 -197t197 -81t197 81t81 197t-81 197t-197 81t-197 -81t-81 -197z" />
            <glyph glyph-name="macron" unicode="&#xaf;" horiz-adv-x="222" 
                   d="M18 730h186q29 0 47 -16t18 -44q0 -29 -18 -44.5t-47 -15.5h-186q-29 0 -47 15.5t-18 44.5q0 28 18 44t47 16z" />
            <glyph glyph-name="macron" unicode="&#x2c9;" horiz-adv-x="222" 
                   d="M18 730h186q29 0 47 -16t18 -44q0 -29 -18 -44.5t-47 -15.5h-186q-29 0 -47 15.5t-18 44.5q0 28 18 44t47 16z" />
            <glyph glyph-name="degree" unicode="&#xb0;" horiz-adv-x="400" 
                   d="M117 563q0 -34 24.5 -58.5t58.5 -24.5t58.5 24.5t24.5 58.5t-24.5 58.5t-58.5 24.5t-58.5 -24.5t-24.5 -58.5zM39 563q0 67 47 114t114 47t114 -47t47 -114t-47 -114t-114 -47t-114 47t-47 114z" />
            <glyph glyph-name="plusminus" unicode="&#xb1;" horiz-adv-x="600" 
                   d="M240 394v64q0 27 16 43.5t44 16.5t44 -16.5t16 -43.5v-64h145q28 0 44 -16.5t16 -43.5t-16 -43.5t-44 -16.5h-145v-64q0 -27 -16 -43.5t-44 -16.5t-44 16.5t-16 43.5v64h-145q-28 0 -44 16.5t-16 43.5t16 43.5t44 16.5h145zM95 120h410q28 0 44 -16.5t16 -43.5t-16 -43.5
t-44 -16.5h-410q-28 0 -44 16.5t-16 43.5t16 43.5t44 16.5z" />
            <glyph glyph-name="twosuperior" unicode="&#xb2;" horiz-adv-x="373" 
                   d="M198 393h102q44 0 44 -51t-44 -51h-224q-20 0 -33.5 10t-13.5 29q0 15 15 30q17 19 52 55t61.5 66t47.5 59q23 31 23 55q0 18 -13 28.5t-33 10.5q-26 0 -39.5 -14t-16 -31t-13.5 -31t-33 -14q-47 0 -47 56q0 40 43 82t110 42q61 0 102.5 -34t41.5 -90q0 -39 -24 -78.5
t-64 -81.5t-44 -47z" />
            <glyph glyph-name="threesuperior" unicode="&#xb3;" horiz-adv-x="373" 
                   d="M182 724q56 0 98 -30t42 -79q0 -59 -55 -92q36 -15 58 -44t22 -64q0 -63 -49.5 -96.5t-115.5 -33.5q-55 0 -105.5 31.5t-50.5 79.5q0 17 16 28.5t34 11.5t29.5 -15t28.5 -30.5t48 -15.5q26 0 44.5 13.5t18.5 32.5q0 43 -55 51q-1 0 -8 1.5t-8.5 1.5t-7.5 1.5t-8 2.5
t-6.5 3t-6 3.5l-4.5 4.5t-4 6.5t-2 8t-1 9.5q0 15 7.5 24t15.5 12t23 6q15 4 23 7t15.5 13t7.5 25q0 33 -44 33q-27 0 -52.5 -25.5t-47.5 -25.5q-19 0 -30.5 13t-11.5 31q0 40 48.5 68.5t93.5 28.5z" />
            <glyph glyph-name="acute" unicode="&#xb4;" horiz-adv-x="222" 
                   d="M24 715l118 48q25 10 38 10q21 0 37.5 -20t16.5 -42q0 -44 -41 -59l-112 -44q-7 -2 -13 -4.5t-7.5 -3.5t-5 -1.5t-5.5 -0.5h-9q-22 0 -37.5 23t-15.5 50q0 25 28 40z" />
            <glyph glyph-name="mu" unicode="&#xb5;" horiz-adv-x="556" 
                   d="M41 -138v596q0 36 20 58t52 22t52 -22t20 -58v-257q0 -43 27.5 -68t65.5 -25t65.5 25t27.5 68v257q0 36 20 58t52 22t52 -22t20 -58v-384q0 -36 -20 -58t-52 -22t-52 19t-20 50h-2q-15 -38 -41 -56.5t-51 -18.5q-23 0 -49.5 14.5t-40.5 35.5h-2v-176q0 -36 -20 -58
t-52 -22t-52 22t-20 58z" />
            <glyph glyph-name="mu" unicode="&#x3bc;" horiz-adv-x="556" 
                   d="M41 -138v596q0 36 20 58t52 22t52 -22t20 -58v-257q0 -43 27.5 -68t65.5 -25t65.5 25t27.5 68v257q0 36 20 58t52 22t52 -22t20 -58v-384q0 -36 -20 -58t-52 -22t-52 19t-20 50h-2q-15 -38 -41 -56.5t-51 -18.5q-23 0 -49.5 14.5t-40.5 35.5h-2v-176q0 -36 -20 -58
t-52 -22t-52 22t-20 58z" />
            <glyph glyph-name="paragraph" unicode="&#xb6;" horiz-adv-x="620" 
                   d="M238 -152v515q-108 0 -165.5 45t-57.5 126q0 100 64.5 139t181.5 39h254q28 0 44 -16.5t16 -43.5v-804q0 -27 -16 -43.5t-44 -16.5t-44 16.5t-16 43.5v774h-97v-774q0 -27 -16 -43.5t-44 -16.5t-44 16.5t-16 43.5z" />
            <glyph glyph-name="periodcentered" unicode="&#xb7;" horiz-adv-x="268" 
                   d="M134 359q32 0 55 -23t23 -55q0 -33 -23 -55.5t-55 -22.5t-55 23t-23 55t23 55t55 23z" />
            <glyph glyph-name="periodcentered" unicode="&#x2219;" horiz-adv-x="268" 
                   d="M134 359q32 0 55 -23t23 -55q0 -33 -23 -55.5t-55 -22.5t-55 23t-23 55t23 55t55 23z" />
            <glyph glyph-name="cedilla" unicode="&#xb8;" horiz-adv-x="222" 
                   d="M127 0h60l-39 -51q4 0 11.5 1.5t10.5 1.5q32 0 53.5 -20.5t21.5 -55.5q0 -45 -34.5 -69.5t-76.5 -24.5q-90 0 -90 50q0 11 7 18.5t17 7.5q4 0 21 -4.5t27 -5.5q33 -2 33 28q0 13 -5.5 19.5t-11.5 7.5t-17 1q-2 0 -7 0.5t-7.5 1t-6 1t-5.5 2t-4 4t-3 6t-1 8.5q0 11 22 40z
" />
            <glyph glyph-name="onesuperior" unicode="&#xb9;" horiz-adv-x="240" 
                   d="M88 329v287h-34q-44 0 -44 52q0 23 12 36.5t32 13.5h93q20 0 31.5 -11.5t11.5 -30.5v-347q0 -19 -14 -31.5t-37 -12.5t-37 12t-14 32z" />
            <glyph glyph-name="ordmasculine" unicode="&#xba;" horiz-adv-x="361" 
                   d="M181 724q72 0 119.5 -49.5t47.5 -117.5q0 -69 -47 -117.5t-120 -48.5q-74 0 -121 48.5t-47 117.5q0 68 48 117.5t120 49.5zM181 469q33 0 52 27t19 61q0 35 -18 62t-53 27t-53.5 -27t-18.5 -62q0 -34 19 -61t53 -27z" />
            <glyph glyph-name="guillemotright" unicode="&#xbb;" horiz-adv-x="500" 
                   d="M252 158l79 123l-79 117q-11 16 -11 34q0 27 16.5 45t43.5 18q33 0 50 -25l103 -159q9 -13 9 -36q0 -22 -24 -56l-97 -137q-15 -17 -43 -17q-26 0 -42 16t-16 39t11 38zM48 158l79 123l-79 117q-11 16 -11 34q0 27 16.5 45t43.5 18q33 0 50 -25l103 -159q9 -13 9 -36
q0 -22 -24 -56l-97 -137q-15 -17 -43 -17q-26 0 -42 16t-16 39t11 38z" />
            <glyph glyph-name="onequarter" unicode="&#xbc;" horiz-adv-x="861" 
                   d="M162 74l331 624q10 19 19.5 25.5t26.5 6.5q24 0 41.5 -16.5t17.5 -39.5q0 -15 -8 -30l-336 -629q-1 -2 -4.5 -6.5t-4.5 -6t-4 -5t-4 -5t-4 -4t-5 -3t-5 -1.5t-6.5 -1.5t-7.5 -0.5q-20 0 -38.5 16.5t-18.5 38.5q0 17 10 37zM114 329v287h-34q-44 0 -44 52q0 23 12 36.5
t32 13.5h93q20 0 31.5 -11.5t11.5 -30.5v-347q0 -19 -14 -31.5t-37 -12.5t-37 12t-14 32zM475 154l145 244q22 35 71 35q34 0 56.5 -19.5t22.5 -57.5v-177h10q20 0 32.5 -12t12.5 -35q0 -24 -12.5 -36.5t-32.5 -12.5h-10v-45q0 -44 -51 -44t-51 44v45h-163q-20 0 -29.5 12
t-9.5 29q0 14 9 30zM668 179v153h-2l-84 -153h86z" />
            <glyph glyph-name="onehalf" unicode="&#xbd;" horiz-adv-x="861" 
                   d="M162 74l331 624q10 19 19.5 25.5t26.5 6.5q24 0 41.5 -16.5t17.5 -39.5q0 -15 -8 -30l-336 -629q-1 -2 -4.5 -6.5t-4.5 -6t-4 -5t-4 -5t-4 -4t-5 -3t-5 -1.5t-6.5 -1.5t-7.5 -0.5q-20 0 -38.5 16.5t-18.5 38.5q0 17 10 37zM784 0h-227q-20 0 -33.5 10t-13.5 30
q0 15 15 30q17 19 52 55t61.5 66t47.5 59q23 31 23 55q0 18 -13 28t-33 10q-26 0 -39.5 -14t-16 -30.5t-13.5 -30.5t-33 -14q-47 0 -47 56q0 39 43 81t110 42q62 0 103 -33.5t41 -89.5q0 -30 -17 -64t-37 -57l-45.5 -50t-32.5 -37h99q18 0 32.5 -16t14.5 -37q0 -49 -41 -49z
M114 329v287h-34q-44 0 -44 52q0 23 12 36.5t32 13.5h93q20 0 31.5 -11.5t11.5 -30.5v-347q0 -19 -14 -31.5t-37 -12.5t-37 12t-14 32z" />
            <glyph glyph-name="threequarters" unicode="&#xbe;" horiz-adv-x="861" 
                   d="M238 74l331 624q10 19 19.5 25.5t26.5 6.5q24 0 41.5 -16.5t17.5 -39.5q0 -15 -8 -30l-336 -629q-1 -2 -4.5 -6.5t-4.5 -6t-4 -5t-4 -5t-4 -4t-5 -3t-5 -1.5t-6.5 -1.5t-7.5 -0.5q-20 0 -38.5 16.5t-18.5 38.5q0 17 10 37zM179 724q56 0 98 -30t42 -79q0 -59 -55 -92
q36 -15 58 -44t22 -64q0 -63 -49.5 -96.5t-115.5 -33.5q-55 0 -105.5 31.5t-50.5 79.5q0 17 16 28.5t34 11.5t29.5 -15t28.5 -30.5t48 -15.5q26 0 44.5 13.5t18.5 32.5q0 43 -55 51q-1 0 -8 1.5t-8.5 1.5t-7.5 1.5t-8 2.5t-6.5 3t-6 3.5l-4.5 4.5t-4 6.5t-2 8t-1 9.5
q0 15 7.5 24t15.5 12t23 6q15 4 23 7t15.5 13t7.5 25q0 33 -44 33q-27 0 -52.5 -25.5t-47.5 -25.5q-19 0 -30.5 13t-11.5 31q0 40 48.5 68.5t93.5 28.5zM488 154l145 244q22 35 71 35q34 0 56.5 -19.5t22.5 -57.5v-177h10q20 0 32.5 -12t12.5 -35q0 -24 -12.5 -36.5
t-32.5 -12.5h-10v-45q0 -44 -51 -44t-51 44v45h-163q-20 0 -29.5 12t-9.5 29q0 14 9 30zM681 179v153h-2l-84 -153h86z" />
            <glyph glyph-name="questiondown" unicode="&#xbf;" horiz-adv-x="481" 
                   d="M334 260v-100q0 -7 -2 -12.5t-4.5 -9.5t-8.5 -8t-10 -6t-13 -5t-13 -4t-15 -4t-15 -4q-38 -10 -59 -28t-21 -57q0 -32 25 -54t58 -22q28 0 51.5 15.5t36.5 34t32.5 34t40.5 15.5q27 0 44 -19.5t17 -52.5q0 -49 -37.5 -88.5t-87 -58t-97.5 -18.5q-101 0 -170 58.5
t-69 155.5q0 80 46 131t127 71v36q0 30 20.5 49.5t51.5 19.5q33 0 52.5 -19t19.5 -50zM262 544q32 0 55 -23t23 -55t-23 -55t-55 -23t-55 23t-23 55t23 55t55 23z" />
            <glyph glyph-name="Agrave" unicode="&#xc0;" horiz-adv-x="630" 
                   d="M9 97l201 544q13 36 41.5 59.5t65.5 23.5q38 0 66 -22.5t41 -60.5l196 -544q8 -21 8 -37q0 -29 -20.5 -47.5t-48.5 -18.5q-56 0 -73 52l-30 94h-278l-30 -93q-17 -53 -72 -53q-30 0 -52 20t-22 50q0 16 7 33zM316 568l-95 -290h190l-93 290h-2zM284 925l118 -48l8 -4
q28 -15 28 -40q0 -27 -15.5 -50t-37.5 -23h-8t-4.5 0.5t-4.5 1t-4 1.5t-7.5 3l-11.5 4l-112 44q-41 15 -41 59q0 22 16.5 42t37.5 20q13 0 38 -10z" />
            <glyph glyph-name="Aacute" unicode="&#xc1;" horiz-adv-x="630" 
                   d="M9 97l201 544q13 36 41.5 59.5t65.5 23.5q38 0 66 -22.5t41 -60.5l196 -544q8 -21 8 -37q0 -29 -20.5 -47.5t-48.5 -18.5q-56 0 -73 52l-30 94h-278l-30 -93q-17 -53 -72 -53q-30 0 -52 20t-22 50q0 16 7 33zM316 568l-95 -290h190l-93 290h-2zM228 877l118 48
q25 10 38 10q21 0 37.5 -20t16.5 -42q0 -44 -41 -59l-112 -44q-7 -2 -13 -4.5t-7.5 -3.5t-5 -1.5t-5.5 -0.5h-9q-22 0 -37.5 23t-15.5 50q0 25 28 40z" />
            <glyph glyph-name="Acircumflex" unicode="&#xc2;" horiz-adv-x="630" 
                   d="M9 97l201 544q13 36 41.5 59.5t65.5 23.5q38 0 66 -22.5t41 -60.5l196 -544q8 -21 8 -37q0 -29 -20.5 -47.5t-48.5 -18.5q-56 0 -73 52l-30 94h-278l-30 -93q-17 -53 -72 -53q-30 0 -52 20t-22 50q0 16 7 33zM316 568l-95 -290h190l-93 290h-2zM209 883l106 43l106 -43
q46 -19 46 -61q0 -24 -18.5 -44t-42.5 -20q-9 0 -52 18l-39 17l-39 -17q-43 -18 -52 -18q-24 0 -42.5 20t-18.5 44q0 44 46 61z" />
            <glyph glyph-name="Atilde" unicode="&#xc3;" horiz-adv-x="630" 
                   d="M9 97l201 544q13 36 41.5 59.5t65.5 23.5q38 0 66 -22.5t41 -60.5l196 -544q8 -21 8 -37q0 -29 -20.5 -47.5t-48.5 -18.5q-56 0 -73 52l-30 94h-278l-30 -93q-17 -53 -72 -53q-30 0 -52 20t-22 50q0 16 7 33zM316 568l-95 -290h190l-93 290h-2zM199 767q-19 0 -34.5 16.5
t-15.5 35.5q0 40 27.5 64t67.5 24q26 0 64.5 -12.5t47.5 -12.5t36.5 14.5t41.5 14.5q22 0 34.5 -16.5t12.5 -39.5q0 -36 -30.5 -61.5t-67.5 -25.5q-18 0 -60.5 12.5t-52.5 12.5q-11 0 -32 -13t-39 -13z" />
            <glyph glyph-name="Adieresis" unicode="&#xc4;" horiz-adv-x="630" 
                   d="M9 97l201 544q13 36 41.5 59.5t65.5 23.5q38 0 66 -22.5t41 -60.5l196 -544q8 -21 8 -37q0 -29 -20.5 -47.5t-48.5 -18.5q-56 0 -73 52l-30 94h-278l-30 -93q-17 -53 -72 -53q-30 0 -52 20t-22 50q0 16 7 33zM316 568l-95 -290h190l-93 290h-2zM353 837q0 30 21 51t51 21
t51 -21t21 -51t-21 -51t-51 -21t-51 21t-21 51zM133 837q0 30 21 51t51 21t51 -21t21 -51t-21 -51t-51 -21t-51 21t-21 51z" />
            <glyph glyph-name="Aring" unicode="&#xc5;" horiz-adv-x="630" 
                   d="M9 97l201 544q13 36 41.5 59.5t65.5 23.5q38 0 66 -22.5t41 -60.5l196 -544q8 -21 8 -37q0 -29 -20.5 -47.5t-48.5 -18.5q-56 0 -73 52l-30 94h-278l-30 -93q-17 -53 -72 -53q-30 0 -52 20t-22 50q0 16 7 33zM316 568l-95 -290h190l-93 290h-2zM216 840q0 41 29 70t70 29
t70 -29t29 -70t-29 -70t-70 -29t-70 29t-29 70zM270 840q0 -19 13 -32t32 -13t32 13t13 32t-13 32t-32 13t-32 -13t-13 -32z" />
            <glyph glyph-name="AE" unicode="&#xc6;" horiz-adv-x="833" 
                   d="M10 105l310 573q18 34 70 34h351q34 0 52.5 -20.5t18.5 -48.5t-19 -48.5t-52 -20.5h-176v-146h164q35 0 54 -20.5t19 -48.5t-19.5 -48.5t-53.5 -20.5h-164v-152h185q34 0 52.5 -20.5t18.5 -48.5t-19 -48.5t-52 -20.5h-258q-33 0 -55 21t-22 54v50h-229l-47 -82
q-28 -49 -71 -49q-30 0 -51 17.5t-21 45.5q0 22 14 48zM413 550l-158 -290h160v290h-2z" />
            <glyph glyph-name="Ccedilla" unicode="&#xc7;" horiz-adv-x="611" 
                   d="M373 -11l-30 -40q3 0 11 1.5t11 1.5q32 0 53.5 -20.5t21.5 -55.5q0 -45 -34.5 -69.5t-76.5 -24.5q-90 0 -90 50q0 11 7 18.5t17 7.5q4 0 21 -4.5t27 -5.5q33 -2 33 28q0 13 -5.5 19.5t-11.5 7.5t-17 1q-2 0 -7 0.5t-7.5 1t-6 1t-5.5 2t-4 4t-3 6t-1 8.5q0 11 22 40l17 24
q-133 16 -215.5 118.5t-82.5 246.5q0 158 96.5 263t247.5 105q31 0 65 -5.5t69.5 -17t58 -35t22.5 -54.5q0 -28 -17.5 -47.5t-44.5 -19.5q-15 0 -60.5 17.5t-92.5 17.5q-89 0 -138.5 -65t-49.5 -162q0 -94 49.5 -157.5t138.5 -63.5q47 0 95.5 21t63.5 21q30 0 48 -23t18 -45
q0 -32 -22 -56.5t-57 -36.5t-68.5 -18t-65.5 -6z" />
            <glyph glyph-name="Egrave" unicode="&#xc8;" horiz-adv-x="463" 
                   d="M45 75v550q0 39 20 63t58 24h248q34 0 52.5 -20.5t18.5 -48.5t-19 -48.5t-52 -20.5h-176v-146h164q35 0 54 -20.5t19 -48.5t-19.5 -48.5t-53.5 -20.5h-164v-152h185q34 0 52.5 -20.5t18.5 -48.5t-19 -48.5t-52 -20.5h-258q-33 0 -55 21t-22 54zM201 925l118 -48l8 -4
q28 -15 28 -40q0 -27 -15.5 -50t-37.5 -23h-8t-4.5 0.5t-4.5 1t-4 1.5t-7.5 3l-11.5 4l-112 44q-41 15 -41 59q0 22 16.5 42t37.5 20q13 0 38 -10z" />
            <glyph glyph-name="Eacute" unicode="&#xc9;" horiz-adv-x="463" 
                   d="M45 75v550q0 39 20 63t58 24h248q34 0 52.5 -20.5t18.5 -48.5t-19 -48.5t-52 -20.5h-176v-146h164q35 0 54 -20.5t19 -48.5t-19.5 -48.5t-53.5 -20.5h-164v-152h185q34 0 52.5 -20.5t18.5 -48.5t-19 -48.5t-52 -20.5h-258q-33 0 -55 21t-22 54zM145 877l118 48
q25 10 38 10q21 0 37.5 -20t16.5 -42q0 -44 -41 -59l-112 -44q-7 -2 -13 -4.5t-7.5 -3.5t-5 -1.5t-5.5 -0.5h-9q-22 0 -37.5 23t-15.5 50q0 25 28 40z" />
            <glyph glyph-name="Ecircumflex" unicode="&#xca;" horiz-adv-x="463" 
                   d="M45 75v550q0 39 20 63t58 24h248q34 0 52.5 -20.5t18.5 -48.5t-19 -48.5t-52 -20.5h-176v-146h164q35 0 54 -20.5t19 -48.5t-19.5 -48.5t-53.5 -20.5h-164v-152h185q34 0 52.5 -20.5t18.5 -48.5t-19 -48.5t-52 -20.5h-258q-33 0 -55 21t-22 54zM126 883l106 43l106 -43
q46 -19 46 -61q0 -24 -18.5 -44t-42.5 -20q-9 0 -52 18l-39 17l-39 -17q-43 -18 -52 -18q-24 0 -42.5 20t-18.5 44q0 44 46 61z" />
            <glyph glyph-name="Edieresis" unicode="&#xcb;" horiz-adv-x="463" 
                   d="M45 75v550q0 39 20 63t58 24h248q34 0 52.5 -20.5t18.5 -48.5t-19 -48.5t-52 -20.5h-176v-146h164q35 0 54 -20.5t19 -48.5t-19.5 -48.5t-53.5 -20.5h-164v-152h185q34 0 52.5 -20.5t18.5 -48.5t-19 -48.5t-52 -20.5h-258q-33 0 -55 21t-22 54zM270 837q0 30 21 51t51 21
t51 -21t21 -51t-21 -51t-51 -21t-51 21t-21 51zM50 837q0 30 21 51t51 21t51 -21t21 -51t-21 -51t-51 -21t-51 21t-21 51z" />
            <glyph glyph-name="Igrave" unicode="&#xcc;" horiz-adv-x="240" 
                   d="M45 72v568q0 37 21 57.5t54 20.5t54 -20.5t21 -57.5v-568q0 -37 -21 -57.5t-54 -20.5t-54 20.5t-21 57.5zM89 925l118 -48l8 -4q28 -15 28 -40q0 -27 -15.5 -50t-37.5 -23h-8t-4.5 0.5t-4.5 1t-4 1.5t-7.5 3l-11.5 4l-112 44q-41 15 -41 59q0 22 16.5 42t37.5 20
q13 0 38 -10z" />
            <glyph glyph-name="Iacute" unicode="&#xcd;" horiz-adv-x="240" 
                   d="M45 72v568q0 37 21 57.5t54 20.5t54 -20.5t21 -57.5v-568q0 -37 -21 -57.5t-54 -20.5t-54 20.5t-21 57.5zM33 877l118 48q25 10 38 10q21 0 37.5 -20t16.5 -42q0 -44 -41 -59l-112 -44q-7 -2 -13 -4.5t-7.5 -3.5t-5 -1.5t-5.5 -0.5h-9q-22 0 -37.5 23t-15.5 50
q0 25 28 40z" />
            <glyph glyph-name="Icircumflex" unicode="&#xce;" horiz-adv-x="240" 
                   d="M45 72v568q0 37 21 57.5t54 20.5t54 -20.5t21 -57.5v-568q0 -37 -21 -57.5t-54 -20.5t-54 20.5t-21 57.5zM14 883l106 43l106 -43q46 -19 46 -61q0 -24 -18.5 -44t-42.5 -20q-9 0 -52 18l-39 17l-39 -17q-43 -18 -52 -18q-24 0 -42.5 20t-18.5 44q0 44 46 61z" />
            <glyph glyph-name="Idieresis" unicode="&#xcf;" horiz-adv-x="240" 
                   d="M45 72v568q0 37 21 57.5t54 20.5t54 -20.5t21 -57.5v-568q0 -37 -21 -57.5t-54 -20.5t-54 20.5t-21 57.5zM158 837q0 30 21 51t51 21t51 -21t21 -51t-21 -51t-51 -21t-51 21t-21 51zM-62 837q0 30 21 51t51 21t51 -21t21 -51t-21 -51t-51 -21t-51 21t-21 51z" />
            <glyph glyph-name="Eth" unicode="&#xd0;" horiz-adv-x="667" 
                   d="M45 75v229h-27q-30 0 -46.5 17t-16.5 40t16.5 40t46.5 17h27v217q0 34 21.5 55.5t55.5 21.5h166q166 0 259 -99t93 -267q0 -157 -93.5 -251.5t-248.5 -94.5h-174q-30 0 -54.5 18t-24.5 57zM195 574v-156h82q30 0 46.5 -17t16.5 -40t-16.5 -40t-46.5 -17h-82v-166h101
q93 0 140.5 60t47.5 155q0 101 -49.5 161t-148.5 60h-91z" />
            <glyph glyph-name="Ntilde" unicode="&#xd1;" horiz-adv-x="685" 
                   d="M39 72v568q0 37 21 57.5t54 20.5q15 0 34 -10t29 -23l317 -423h2v378q0 37 21 57.5t54 20.5t54 -20.5t21 -57.5v-568q0 -37 -21 -57.5t-54 -20.5q-14 0 -33.5 10t-29.5 23l-317 418h-2v-373q0 -37 -21 -57.5t-54 -20.5t-54 20.5t-21 57.5zM227 767q-19 0 -34.5 16.5
t-15.5 35.5q0 40 27.5 64t67.5 24q26 0 64.5 -12.5t47.5 -12.5t36.5 14.5t41.5 14.5q22 0 34.5 -16.5t12.5 -39.5q0 -36 -30.5 -61.5t-67.5 -25.5q-18 0 -60.5 12.5t-52.5 12.5q-11 0 -32 -13t-39 -13z" />
            <glyph glyph-name="Ograve" unicode="&#xd2;" horiz-adv-x="722" 
                   d="M361 126q91 0 139.5 66t48.5 164q0 97 -49.5 163.5t-138.5 66.5t-138.5 -66.5t-49.5 -163.5q0 -98 48.5 -164t139.5 -66zM361 -12q-151 0 -247.5 105.5t-96.5 262.5q0 158 96.5 263t247.5 105q149 0 246.5 -107t97.5 -261q0 -157 -96 -262.5t-248 -105.5zM330 925
l118 -48l8 -4q28 -15 28 -40q0 -27 -15.5 -50t-37.5 -23h-8t-4.5 0.5t-4.5 1t-4 1.5t-7.5 3l-11.5 4l-112 44q-41 15 -41 59q0 22 16.5 42t37.5 20q13 0 38 -10z" />
            <glyph glyph-name="Oacute" unicode="&#xd3;" horiz-adv-x="722" 
                   d="M361 126q91 0 139.5 66t48.5 164q0 97 -49.5 163.5t-138.5 66.5t-138.5 -66.5t-49.5 -163.5q0 -98 48.5 -164t139.5 -66zM361 -12q-151 0 -247.5 105.5t-96.5 262.5q0 158 96.5 263t247.5 105q149 0 246.5 -107t97.5 -261q0 -157 -96 -262.5t-248 -105.5zM274 877l118 48
q25 10 38 10q21 0 37.5 -20t16.5 -42q0 -44 -41 -59l-112 -44q-7 -2 -13 -4.5t-7.5 -3.5t-5 -1.5t-5.5 -0.5h-9q-22 0 -37.5 23t-15.5 50q0 25 28 40z" />
            <glyph glyph-name="Ocircumflex" unicode="&#xd4;" horiz-adv-x="722" 
                   d="M361 126q91 0 139.5 66t48.5 164q0 97 -49.5 163.5t-138.5 66.5t-138.5 -66.5t-49.5 -163.5q0 -98 48.5 -164t139.5 -66zM361 -12q-151 0 -247.5 105.5t-96.5 262.5q0 158 96.5 263t247.5 105q149 0 246.5 -107t97.5 -261q0 -157 -96 -262.5t-248 -105.5zM255 883l106 43
l106 -43q46 -19 46 -61q0 -24 -18.5 -44t-42.5 -20q-9 0 -52 18l-39 17l-39 -17q-43 -18 -52 -18q-24 0 -42.5 20t-18.5 44q0 44 46 61z" />
            <glyph glyph-name="Otilde" unicode="&#xd5;" horiz-adv-x="722" 
                   d="M361 126q91 0 139.5 66t48.5 164q0 97 -49.5 163.5t-138.5 66.5t-138.5 -66.5t-49.5 -163.5q0 -98 48.5 -164t139.5 -66zM361 -12q-151 0 -247.5 105.5t-96.5 262.5q0 158 96.5 263t247.5 105q149 0 246.5 -107t97.5 -261q0 -157 -96 -262.5t-248 -105.5zM245 767
q-19 0 -34.5 16.5t-15.5 35.5q0 40 27.5 64t67.5 24q26 0 64.5 -12.5t47.5 -12.5t36.5 14.5t41.5 14.5q22 0 34.5 -16.5t12.5 -39.5q0 -36 -30.5 -61.5t-67.5 -25.5q-18 0 -60.5 12.5t-52.5 12.5q-11 0 -32 -13t-39 -13z" />
            <glyph glyph-name="Odieresis" unicode="&#xd6;" horiz-adv-x="722" 
                   d="M361 126q91 0 139.5 66t48.5 164q0 97 -49.5 163.5t-138.5 66.5t-138.5 -66.5t-49.5 -163.5q0 -98 48.5 -164t139.5 -66zM361 -12q-151 0 -247.5 105.5t-96.5 262.5q0 158 96.5 263t247.5 105q149 0 246.5 -107t97.5 -261q0 -157 -96 -262.5t-248 -105.5zM399 837
q0 30 21 51t51 21t51 -21t21 -51t-21 -51t-51 -21t-51 21t-21 51zM179 837q0 30 21 51t51 21t51 -21t21 -51t-21 -51t-51 -21t-51 21t-21 51z" />
            <glyph glyph-name="multiply" unicode="&#xd7;" horiz-adv-x="600" 
                   d="M176 459l124 -124l124 124q19 19 41 19t41 -19q19 -17 19 -44q0 -19 -19 -38l-124 -124l124 -124q19 -19 19 -41t-19 -41q-17 -19 -44 -19q-19 0 -38 19l-124 124l-124 -124q-19 -19 -38 -19q-27 0 -44 19q-19 19 -19 41t19 41l124 124l-124 124q-19 19 -19 38
q0 27 19 44q19 19 41 19t41 -19z" />
            <glyph glyph-name="Oslash" unicode="&#xd8;" horiz-adv-x="722" 
                   d="M527 470l-283 -301q43 -43 117 -43q91 0 139.5 66t48.5 164q0 67 -22 114zM14 58l70 71q-67 97 -67 227q0 158 96.5 263t247.5 105q131 0 216 -76l48 48q29 34 56 34q15 0 28 -10.5t13 -24.5q0 -21 -10 -33l-76 -78q69 -101 69 -228q0 -157 -96 -262.5t-248 -105.5
q-131 0 -218 76l-62 -63q-17 -19 -39 -19q-15 0 -28.5 13.5t-13.5 31.5q0 15 14 31zM194 244l283 300q-45 42 -116 42q-89 0 -138.5 -66.5t-49.5 -163.5q0 -66 21 -112z" />
            <glyph glyph-name="Ugrave" unicode="&#xd9;" horiz-adv-x="685" 
                   d="M39 283v357q0 37 21 57.5t54 20.5t54 -20.5t21 -57.5v-349q0 -71 42 -118t112 -47q67 0 110 48.5t43 116.5v349q0 37 21 57.5t54 20.5t54 -20.5t21 -57.5v-357q0 -125 -89 -210t-214 -85q-127 0 -215.5 84.5t-88.5 210.5zM312 925l118 -48l8 -4q28 -15 28 -40
q0 -27 -15.5 -50t-37.5 -23h-8t-4.5 0.5t-4.5 1t-4 1.5t-7.5 3l-11.5 4l-112 44q-41 15 -41 59q0 22 16.5 42t37.5 20q13 0 38 -10z" />
            <glyph glyph-name="Uacute" unicode="&#xda;" horiz-adv-x="685" 
                   d="M39 283v357q0 37 21 57.5t54 20.5t54 -20.5t21 -57.5v-349q0 -71 42 -118t112 -47q67 0 110 48.5t43 116.5v349q0 37 21 57.5t54 20.5t54 -20.5t21 -57.5v-357q0 -125 -89 -210t-214 -85q-127 0 -215.5 84.5t-88.5 210.5zM256 877l118 48q25 10 38 10q21 0 37.5 -20
t16.5 -42q0 -44 -41 -59l-112 -44q-7 -2 -13 -4.5t-7.5 -3.5t-5 -1.5t-5.5 -0.5h-9q-22 0 -37.5 23t-15.5 50q0 25 28 40z" />
            <glyph glyph-name="Ucircumflex" unicode="&#xdb;" horiz-adv-x="685" 
                   d="M39 283v357q0 37 21 57.5t54 20.5t54 -20.5t21 -57.5v-349q0 -71 42 -118t112 -47q67 0 110 48.5t43 116.5v349q0 37 21 57.5t54 20.5t54 -20.5t21 -57.5v-357q0 -125 -89 -210t-214 -85q-127 0 -215.5 84.5t-88.5 210.5zM237 883l106 43l106 -43q46 -19 46 -61
q0 -24 -18.5 -44t-42.5 -20q-9 0 -52 18l-39 17l-39 -17q-43 -18 -52 -18q-24 0 -42.5 20t-18.5 44q0 44 46 61z" />
            <glyph glyph-name="Udieresis" unicode="&#xdc;" horiz-adv-x="685" 
                   d="M39 283v357q0 37 21 57.5t54 20.5t54 -20.5t21 -57.5v-349q0 -71 42 -118t112 -47q67 0 110 48.5t43 116.5v349q0 37 21 57.5t54 20.5t54 -20.5t21 -57.5v-357q0 -125 -89 -210t-214 -85q-127 0 -215.5 84.5t-88.5 210.5zM381 837q0 30 21 51t51 21t51 -21t21 -51
t-21 -51t-51 -21t-51 21t-21 51zM161 837q0 30 21 51t51 21t51 -21t21 -51t-21 -51t-51 -21t-51 21t-21 51z" />
            <glyph glyph-name="Yacute" unicode="&#xdd;" horiz-adv-x="536" 
                   d="M193 67v267l-189 266q-14 20 -14 45q0 30 20.5 51.5t51.5 21.5q41 0 62 -30l144 -209l144 209q21 30 62 30q31 0 51.5 -21.5t20.5 -51.5q0 -25 -14 -45l-189 -266v-267q0 -31 -19 -52t-56 -21t-56 21t-19 52zM181 877l118 48q25 10 38 10q21 0 37.5 -20t16.5 -42
q0 -44 -41 -59l-112 -44q-7 -2 -13 -4.5t-7.5 -3.5t-5 -1.5t-5.5 -0.5h-9q-22 0 -37.5 23t-15.5 50q0 25 28 40z" />
            <glyph glyph-name="Thorn" unicode="&#xde;" horiz-adv-x="556" 
                   d="M195 480v-212h102q46 0 74.5 30t28.5 76t-28.5 76t-74.5 30h-102zM45 72v568q0 37 21 57.5t54 20.5t54 -20.5t21 -57.5v-28h105q111 0 183.5 -66.5t72.5 -172.5q0 -107 -72 -172t-178 -65h-111v-64q0 -37 -21 -57.5t-54 -20.5t-54 20.5t-21 57.5z" />
            <glyph glyph-name="germandbls" unicode="&#xdf;" horiz-adv-x="556" 
                   d="M39 74v442q0 111 61 182.5t170 71.5q92 0 154 -57.5t62 -148.5q0 -43 -17 -81.5t-51 -59.5q61 -18 92.5 -73t31.5 -123q0 -89 -62 -164t-157 -75q-43 0 -65 20.5t-22 51.5q0 14 5.5 25t11 16.5t20.5 11t20.5 7t24.5 5.5q33 7 56.5 35.5t23.5 66.5q0 46 -17.5 71.5
t-42 33.5t-49 13t-42 20t-17.5 46q0 26 12 40t29.5 19.5t35 12.5t29.5 27t12 54q0 29 -22 51.5t-56 22.5q-36 0 -56 -19t-25.5 -43t-5.5 -60v-442q0 -36 -20 -58t-52 -22t-52 22t-20 58z" />
            <glyph glyph-name="agrave" unicode="&#xe0;" 
                   d="M533 444v-356q0 -20 -1.5 -31.5t-7 -28.5t-21 -25.5t-39.5 -8.5q-30 0 -45.5 15t-23.5 46q-56 -67 -137 -67q-102 0 -170 78t-68 199q0 118 69.5 198.5t168.5 80.5q90 0 137 -66q3 26 23 43t46 17q24 0 39.5 -8.5t21 -25.5t7 -28.5t1.5 -31.5zM164 265q0 -57 29.5 -101
t84.5 -44q53 0 82 44t29 101q0 58 -29 102.5t-82 44.5q-55 0 -84.5 -44.5t-29.5 -102.5zM256 763l118 -48l8 -4q28 -15 28 -40q0 -27 -15.5 -50t-37.5 -23h-8t-4.5 0.5t-4.5 1t-4 1.5t-7.5 3l-11.5 4l-112 44q-41 15 -41 59q0 22 16.5 42t37.5 20q13 0 38 -10z" />
            <glyph glyph-name="aacute" unicode="&#xe1;" 
                   d="M533 444v-356q0 -20 -1.5 -31.5t-7 -28.5t-21 -25.5t-39.5 -8.5q-30 0 -45.5 15t-23.5 46q-56 -67 -137 -67q-102 0 -170 78t-68 199q0 118 69.5 198.5t168.5 80.5q90 0 137 -66q3 26 23 43t46 17q24 0 39.5 -8.5t21 -25.5t7 -28.5t1.5 -31.5zM164 265q0 -57 29.5 -101
t84.5 -44q53 0 82 44t29 101q0 58 -29 102.5t-82 44.5q-55 0 -84.5 -44.5t-29.5 -102.5zM200 715l118 48q25 10 38 10q21 0 37.5 -20t16.5 -42q0 -44 -41 -59l-112 -44q-7 -2 -13 -4.5t-7.5 -3.5t-5 -1.5t-5.5 -0.5h-9q-22 0 -37.5 23t-15.5 50q0 25 28 40z" />
            <glyph glyph-name="acircumflex" unicode="&#xe2;" 
                   d="M533 444v-356q0 -20 -1.5 -31.5t-7 -28.5t-21 -25.5t-39.5 -8.5q-30 0 -45.5 15t-23.5 46q-56 -67 -137 -67q-102 0 -170 78t-68 199q0 118 69.5 198.5t168.5 80.5q90 0 137 -66q3 26 23 43t46 17q24 0 39.5 -8.5t21 -25.5t7 -28.5t1.5 -31.5zM164 265q0 -57 29.5 -101
t84.5 -44q53 0 82 44t29 101q0 58 -29 102.5t-82 44.5q-55 0 -84.5 -44.5t-29.5 -102.5zM181 721l106 43l106 -43q46 -19 46 -61q0 -24 -18.5 -44t-42.5 -20q-9 0 -52 18l-39 17l-39 -17q-43 -18 -52 -18q-24 0 -42.5 20t-18.5 44q0 44 46 61z" />
            <glyph glyph-name="atilde" unicode="&#xe3;" 
                   d="M533 444v-356q0 -20 -1.5 -31.5t-7 -28.5t-21 -25.5t-39.5 -8.5q-30 0 -45.5 15t-23.5 46q-56 -67 -137 -67q-102 0 -170 78t-68 199q0 118 69.5 198.5t168.5 80.5q90 0 137 -66q3 26 23 43t46 17q24 0 39.5 -8.5t21 -25.5t7 -28.5t1.5 -31.5zM164 265q0 -57 29.5 -101
t84.5 -44q53 0 82 44t29 101q0 58 -29 102.5t-82 44.5q-55 0 -84.5 -44.5t-29.5 -102.5zM171 605q-19 0 -34.5 16.5t-15.5 35.5q0 40 27.5 64t67.5 24q26 0 64.5 -12.5t47.5 -12.5t36.5 14.5t41.5 14.5q22 0 34.5 -16.5t12.5 -39.5q0 -36 -30.5 -61.5t-67.5 -25.5
q-18 0 -60.5 12.5t-52.5 12.5q-11 0 -32 -13t-39 -13z" />
            <glyph glyph-name="adieresis" unicode="&#xe4;" 
                   d="M533 444v-356q0 -20 -1.5 -31.5t-7 -28.5t-21 -25.5t-39.5 -8.5q-30 0 -45.5 15t-23.5 46q-56 -67 -137 -67q-102 0 -170 78t-68 199q0 118 69.5 198.5t168.5 80.5q90 0 137 -66q3 26 23 43t46 17q24 0 39.5 -8.5t21 -25.5t7 -28.5t1.5 -31.5zM164 265q0 -57 29.5 -101
t84.5 -44q53 0 82 44t29 101q0 58 -29 102.5t-82 44.5q-55 0 -84.5 -44.5t-29.5 -102.5zM325 675q0 30 21 51t51 21t51 -21t21 -51t-21 -51t-51 -21t-51 21t-21 51zM105 675q0 30 21 51t51 21t51 -21t21 -51t-21 -51t-51 -21t-51 21t-21 51z" />
            <glyph glyph-name="aring" unicode="&#xe5;" 
                   d="M533 444v-356q0 -20 -1.5 -31.5t-7 -28.5t-21 -25.5t-39.5 -8.5q-30 0 -45.5 15t-23.5 46q-56 -67 -137 -67q-102 0 -170 78t-68 199q0 118 69.5 198.5t168.5 80.5q90 0 137 -66q3 26 23 43t46 17q24 0 39.5 -8.5t21 -25.5t7 -28.5t1.5 -31.5zM164 265q0 -57 29.5 -101
t84.5 -44q53 0 82 44t29 101q0 58 -29 102.5t-82 44.5q-55 0 -84.5 -44.5t-29.5 -102.5zM188 678q0 41 29 70t70 29t70 -29t29 -70t-29 -70t-70 -29t-70 29t-29 70zM242 678q0 -19 13 -32t32 -13t32 13t13 32t-13 32t-32 13t-32 -13t-13 -32z" />
            <glyph glyph-name="ae" unicode="&#xe6;" horiz-adv-x="907" 
                   d="M164 265q0 -57 29.5 -101t84.5 -44q53 0 82 44t29 101q0 58 -29 102.5t-82 44.5q-55 0 -84.5 -44.5t-29.5 -102.5zM834 218h-307q7 -51 45.5 -77.5t91.5 -26.5q41 0 94 29t68 29q23 0 41 -19t18 -43q0 -45 -76.5 -83.5t-158.5 -38.5q-84 0 -140 42q-13 -36 -54 -36
q-61 0 -61 61h-2q-53 -67 -135 -67q-102 0 -170 78t-68 199q0 118 69.5 198.5t168.5 80.5q90 0 139 -66h2q0 28 16.5 44t40.5 16q44 0 54 -40q49 46 126 46q104 0 182.5 -78.5t78.5 -183.5q0 -64 -63 -64zM525 314h228q-6 49 -36 79.5t-78 30.5q-47 0 -78 -31.5t-36 -78.5z
" />
            <glyph glyph-name="ccedilla" unicode="&#xe7;" horiz-adv-x="463" 
                   d="M300 -10l-31 -41q3 0 11 1.5t11 1.5q32 0 53.5 -20.5t21.5 -55.5q0 -45 -34.5 -69.5t-76.5 -24.5q-90 0 -90 50q0 11 7 18.5t17 7.5q4 0 21 -4.5t27 -5.5q33 -2 33 28q0 13 -5.5 19.5t-11.5 7.5t-17 1q-2 0 -7 0.5t-7.5 1t-6 1t-5.5 2t-4 4t-3 6t-1 8.5q0 11 22 40l17 24
q-99 14 -160 91.5t-61 182.5q0 113 73.5 196t184.5 83q24 0 52 -4.5t57 -14.5t48 -28.5t19 -43.5t-15.5 -47t-39.5 -22q-17 0 -53.5 14t-60.5 14q-58 0 -89.5 -43.5t-31.5 -103.5q0 -57 33 -101t88 -44q20 0 60.5 15t46.5 15q25 0 43.5 -18.5t18.5 -44.5q0 -44 -49.5 -68.5
t-104.5 -28.5z" />
            <glyph glyph-name="egrave" unicode="&#xe8;" horiz-adv-x="537" 
                   d="M464 218h-307q7 -51 45 -77.5t91 -26.5q41 0 95 29t68 29q23 0 41 -19t18 -43q0 -45 -76.5 -83.5t-158.5 -38.5q-120 0 -195 78t-75 199q0 113 73.5 196t184.5 83t185 -82.5t74 -179.5q0 -64 -63 -64zM154 314h229q-6 49 -36 79.5t-79 30.5q-47 0 -78 -31.5t-36 -78.5z
M238 763l118 -48l8 -4q28 -15 28 -40q0 -27 -15.5 -50t-37.5 -23h-8t-4.5 0.5t-4.5 1t-4 1.5t-7.5 3l-11.5 4l-112 44q-41 15 -41 59q0 22 16.5 42t37.5 20q13 0 38 -10z" />
            <glyph glyph-name="eacute" unicode="&#xe9;" horiz-adv-x="537" 
                   d="M464 218h-307q7 -51 45 -77.5t91 -26.5q41 0 95 29t68 29q23 0 41 -19t18 -43q0 -45 -76.5 -83.5t-158.5 -38.5q-120 0 -195 78t-75 199q0 113 73.5 196t184.5 83t185 -82.5t74 -179.5q0 -64 -63 -64zM154 314h229q-6 49 -36 79.5t-79 30.5q-47 0 -78 -31.5t-36 -78.5z
M182 715l118 48q25 10 38 10q21 0 37.5 -20t16.5 -42q0 -44 -41 -59l-112 -44q-7 -2 -13 -4.5t-7.5 -3.5t-5 -1.5t-5.5 -0.5h-9q-22 0 -37.5 23t-15.5 50q0 25 28 40z" />
            <glyph glyph-name="ecircumflex" unicode="&#xea;" horiz-adv-x="537" 
                   d="M464 218h-307q7 -51 45 -77.5t91 -26.5q41 0 95 29t68 29q23 0 41 -19t18 -43q0 -45 -76.5 -83.5t-158.5 -38.5q-120 0 -195 78t-75 199q0 113 73.5 196t184.5 83t185 -82.5t74 -179.5q0 -64 -63 -64zM154 314h229q-6 49 -36 79.5t-79 30.5q-47 0 -78 -31.5t-36 -78.5z
M163 721l106 43l106 -43q46 -19 46 -61q0 -24 -18.5 -44t-42.5 -20q-9 0 -52 18l-39 17l-39 -17q-43 -18 -52 -18q-24 0 -42.5 20t-18.5 44q0 44 46 61z" />
            <glyph glyph-name="edieresis" unicode="&#xeb;" horiz-adv-x="537" 
                   d="M464 218h-307q7 -51 45 -77.5t91 -26.5q41 0 95 29t68 29q23 0 41 -19t18 -43q0 -45 -76.5 -83.5t-158.5 -38.5q-120 0 -195 78t-75 199q0 113 73.5 196t184.5 83t185 -82.5t74 -179.5q0 -64 -63 -64zM154 314h229q-6 49 -36 79.5t-79 30.5q-47 0 -78 -31.5t-36 -78.5z
M307 675q0 30 21 51t51 21t51 -21t21 -51t-21 -51t-51 -21t-51 21t-21 51zM87 675q0 30 21 51t51 21t51 -21t21 -51t-21 -51t-51 -21t-51 21t-21 51z" />
            <glyph glyph-name="igrave" unicode="&#xec;" horiz-adv-x="222" 
                   d="M39 74v384q0 36 20 58t52 22t52 -22t20 -58v-384q0 -36 -20 -58t-52 -22t-52 22t-20 58zM80 763l118 -48l8 -4q28 -15 28 -40q0 -27 -15.5 -50t-37.5 -23h-8t-4.5 0.5t-4.5 1t-4 1.5t-7.5 3l-11.5 4l-112 44q-41 15 -41 59q0 22 16.5 42t37.5 20q13 0 38 -10z" />
            <glyph glyph-name="iacute" unicode="&#xed;" horiz-adv-x="222" 
                   d="M39 74v384q0 36 20 58t52 22t52 -22t20 -58v-384q0 -36 -20 -58t-52 -22t-52 22t-20 58zM24 715l118 48q25 10 38 10q21 0 37.5 -20t16.5 -42q0 -44 -41 -59l-112 -44q-7 -2 -13 -4.5t-7.5 -3.5t-5 -1.5t-5.5 -0.5h-9q-22 0 -37.5 23t-15.5 50q0 25 28 40z" />
            <glyph glyph-name="icircumflex" unicode="&#xee;" horiz-adv-x="222" 
                   d="M39 74v384q0 36 20 58t52 22t52 -22t20 -58v-384q0 -36 -20 -58t-52 -22t-52 22t-20 58zM5 721l106 43l106 -43q46 -19 46 -61q0 -24 -18.5 -44t-42.5 -20q-9 0 -52 18l-39 17l-39 -17q-43 -18 -52 -18q-24 0 -42.5 20t-18.5 44q0 44 46 61z" />
            <glyph glyph-name="idieresis" unicode="&#xef;" horiz-adv-x="222" 
                   d="M39 74v384q0 36 20 58t52 22t52 -22t20 -58v-384q0 -36 -20 -58t-52 -22t-52 22t-20 58zM149 675q0 30 21 51t51 21t51 -21t21 -51t-21 -51t-51 -21t-51 21t-21 51zM-71 675q0 30 21 51t51 21t51 -21t21 -51t-21 -51t-51 -21t-51 21t-21 51z" />
            <glyph glyph-name="eth" unicode="&#xf0;" horiz-adv-x="556" 
                   d="M278 -12q-114 0 -186 81t-72 196q0 99 70 177.5t172 78.5q74 0 113 -43l2 2q-40 88 -112 131l-66 -35q-51 -27 -67 -27q-14 0 -24.5 9.5t-10.5 26.5q0 12 7 21.5t13 13.5t19 10l50 26q-22 9 -32 13.5t-24 17.5t-14 27q0 33 19 47.5t59 14.5q49 0 130 -47l80 43
q21 11 36 11q14 0 24.5 -11t10.5 -27q0 -14 -8.5 -22.5t-31.5 -20.5l-52 -28q83 -78 118 -169.5t35 -215.5q0 -132 -71.5 -216.5t-186.5 -84.5zM277 395q-50 0 -81.5 -39.5t-31.5 -90.5q0 -57 29.5 -101t84.5 -44t84.5 44t29.5 101q-2 54 -32 92t-83 38z" />
            <glyph glyph-name="ntilde" unicode="&#xf1;" horiz-adv-x="556" 
                   d="M41 74v384q0 36 20 58t52 22q58 0 66 -53q42 59 139 59q87 0 142 -52t55 -142v-276q0 -36 -20 -58t-52 -22t-52 22t-20 58v251q0 48 -26.5 73.5t-67.5 25.5q-43 0 -67.5 -28t-24.5 -71v-251q0 -36 -20 -58t-52 -22t-52 22t-20 58zM162 605q-19 0 -34.5 16.5t-15.5 35.5
q0 40 27.5 64t67.5 24q26 0 64.5 -12.5t47.5 -12.5t36.5 14.5t41.5 14.5q22 0 34.5 -16.5t12.5 -39.5q0 -36 -30.5 -61.5t-67.5 -25.5q-18 0 -60.5 12.5t-52.5 12.5q-11 0 -32 -13t-39 -13z" />
            <glyph glyph-name="ograve" unicode="&#xf2;" horiz-adv-x="556" 
                   d="M278 544q111 0 184.5 -83t73.5 -196q0 -115 -72 -196t-186 -81t-186 81t-72 196q0 113 73.5 196t184.5 83zM278 412q-55 0 -84.5 -44.5t-29.5 -102.5q0 -57 29.5 -101t84.5 -44t84.5 44t29.5 101q0 58 -29.5 102.5t-84.5 44.5zM247 763l118 -48l8 -4q28 -15 28 -40
q0 -27 -15.5 -50t-37.5 -23h-8t-4.5 0.5t-4.5 1t-4 1.5t-7.5 3l-11.5 4l-112 44q-41 15 -41 59q0 22 16.5 42t37.5 20q13 0 38 -10z" />
            <glyph glyph-name="oacute" unicode="&#xf3;" horiz-adv-x="556" 
                   d="M278 544q111 0 184.5 -83t73.5 -196q0 -115 -72 -196t-186 -81t-186 81t-72 196q0 113 73.5 196t184.5 83zM278 412q-55 0 -84.5 -44.5t-29.5 -102.5q0 -57 29.5 -101t84.5 -44t84.5 44t29.5 101q0 58 -29.5 102.5t-84.5 44.5zM191 715l118 48q25 10 38 10q21 0 37.5 -20
t16.5 -42q0 -44 -41 -59l-112 -44q-7 -2 -13 -4.5t-7.5 -3.5t-5 -1.5t-5.5 -0.5h-9q-22 0 -37.5 23t-15.5 50q0 25 28 40z" />
            <glyph glyph-name="ocircumflex" unicode="&#xf4;" horiz-adv-x="556" 
                   d="M278 544q111 0 184.5 -83t73.5 -196q0 -115 -72 -196t-186 -81t-186 81t-72 196q0 113 73.5 196t184.5 83zM278 412q-55 0 -84.5 -44.5t-29.5 -102.5q0 -57 29.5 -101t84.5 -44t84.5 44t29.5 101q0 58 -29.5 102.5t-84.5 44.5zM172 721l106 43l106 -43q46 -19 46 -61
q0 -24 -18.5 -44t-42.5 -20q-9 0 -52 18l-39 17l-39 -17q-43 -18 -52 -18q-24 0 -42.5 20t-18.5 44q0 44 46 61z" />
            <glyph glyph-name="otilde" unicode="&#xf5;" horiz-adv-x="556" 
                   d="M278 544q111 0 184.5 -83t73.5 -196q0 -115 -72 -196t-186 -81t-186 81t-72 196q0 113 73.5 196t184.5 83zM278 412q-55 0 -84.5 -44.5t-29.5 -102.5q0 -57 29.5 -101t84.5 -44t84.5 44t29.5 101q0 58 -29.5 102.5t-84.5 44.5zM162 605q-19 0 -34.5 16.5t-15.5 35.5
q0 40 27.5 64t67.5 24q26 0 64.5 -12.5t47.5 -12.5t36.5 14.5t41.5 14.5q22 0 34.5 -16.5t12.5 -39.5q0 -36 -30.5 -61.5t-67.5 -25.5q-18 0 -60.5 12.5t-52.5 12.5q-11 0 -32 -13t-39 -13z" />
            <glyph glyph-name="odieresis" unicode="&#xf6;" horiz-adv-x="556" 
                   d="M278 544q111 0 184.5 -83t73.5 -196q0 -115 -72 -196t-186 -81t-186 81t-72 196q0 113 73.5 196t184.5 83zM278 412q-55 0 -84.5 -44.5t-29.5 -102.5q0 -57 29.5 -101t84.5 -44t84.5 44t29.5 101q0 58 -29.5 102.5t-84.5 44.5zM316 675q0 30 21 51t51 21t51 -21t21 -51
t-21 -51t-51 -21t-51 21t-21 51zM96 675q0 30 21 51t51 21t51 -21t21 -51t-21 -51t-51 -21t-51 21t-21 51z" />
            <glyph glyph-name="divide" unicode="&#xf7;" horiz-adv-x="600" 
                   d="M95 313h410q28 0 44 -16.5t16 -43.5t-16 -43.5t-44 -16.5h-410q-28 0 -44 16.5t-16 43.5t16 43.5t44 16.5zM222 46q0 32 23 55t55 23t55 -23t23 -55t-23 -55t-55 -23t-55 23t-23 55zM222 460q0 32 23 55t55 23t55 -23t23 -55t-23 -55t-55 -23t-55 23t-23 55z" />
            <glyph glyph-name="oslash" unicode="&#xf8;" horiz-adv-x="556" 
                   d="M173 210l171 178q-26 24 -66 24q-55 0 -84.5 -44.5t-29.5 -102.5q0 -30 9 -55zM15 46l53 55q-48 71 -48 164q0 113 73.5 196t184.5 83q90 0 159 -59l46 48q13 15 27 15q17 0 29 -12t12 -29t-10 -27l-52 -54q47 -74 47 -161q0 -115 -72 -196t-186 -81q-92 0 -157 54
l-50 -52q-12 -12 -25 -12q-17 0 -29 12t-12 29t10 27zM385 318l-169 -176q25 -22 62 -22q55 0 84.5 44t29.5 101q0 28 -7 53z" />
            <glyph glyph-name="ugrave" unicode="&#xf9;" horiz-adv-x="556" 
                   d="M41 198v260q0 36 20 58t52 22t52 -22t20 -58v-257q0 -43 27.5 -68t65.5 -25t65.5 25t27.5 68v257q0 36 20 58t52 22t52 -22t20 -58v-260q0 -97 -62 -153.5t-175 -56.5t-175 56.5t-62 153.5zM247 763l118 -48l8 -4q28 -15 28 -40q0 -27 -15.5 -50t-37.5 -23h-8t-4.5 0.5
t-4.5 1t-4 1.5t-7.5 3l-11.5 4l-112 44q-41 15 -41 59q0 22 16.5 42t37.5 20q13 0 38 -10z" />
            <glyph glyph-name="uacute" unicode="&#xfa;" horiz-adv-x="556" 
                   d="M41 198v260q0 36 20 58t52 22t52 -22t20 -58v-257q0 -43 27.5 -68t65.5 -25t65.5 25t27.5 68v257q0 36 20 58t52 22t52 -22t20 -58v-260q0 -97 -62 -153.5t-175 -56.5t-175 56.5t-62 153.5zM191 715l118 48q25 10 38 10q21 0 37.5 -20t16.5 -42q0 -44 -41 -59l-112 -44
q-7 -2 -13 -4.5t-7.5 -3.5t-5 -1.5t-5.5 -0.5h-9q-22 0 -37.5 23t-15.5 50q0 25 28 40z" />
            <glyph glyph-name="ucircumflex" unicode="&#xfb;" horiz-adv-x="556" 
                   d="M41 198v260q0 36 20 58t52 22t52 -22t20 -58v-257q0 -43 27.5 -68t65.5 -25t65.5 25t27.5 68v257q0 36 20 58t52 22t52 -22t20 -58v-260q0 -97 -62 -153.5t-175 -56.5t-175 56.5t-62 153.5zM172 721l106 43l106 -43q46 -19 46 -61q0 -24 -18.5 -44t-42.5 -20q-9 0 -52 18
l-39 17l-39 -17q-43 -18 -52 -18q-24 0 -42.5 20t-18.5 44q0 44 46 61z" />
            <glyph glyph-name="udieresis" unicode="&#xfc;" horiz-adv-x="556" 
                   d="M41 198v260q0 36 20 58t52 22t52 -22t20 -58v-257q0 -43 27.5 -68t65.5 -25t65.5 25t27.5 68v257q0 36 20 58t52 22t52 -22t20 -58v-260q0 -97 -62 -153.5t-175 -56.5t-175 56.5t-62 153.5zM316 675q0 30 21 51t51 21t51 -21t21 -51t-21 -51t-51 -21t-51 21t-21 51z
M96 675q0 30 21 51t51 21t51 -21t21 -51t-21 -51t-51 -21t-51 21t-21 51z" />
            <glyph glyph-name="yacute" unicode="&#xfd;" horiz-adv-x="481" 
                   d="M164 42l-159 397q-7 19 -7 37q0 26 22 44t46 18q53 0 72 -51l99 -271l106 271q19 51 72 51q24 0 46 -18t22 -44q0 -22 -7 -37l-241 -600q-23 -57 -68 -57q-35 0 -55 18.5t-20 43.5q0 19 9 42zM154 715l118 48q25 10 38 10q21 0 37.5 -20t16.5 -42q0 -44 -41 -59l-112 -44
q-7 -2 -13 -4.5t-7.5 -3.5t-5 -1.5t-5.5 -0.5h-9q-22 0 -37.5 23t-15.5 50q0 25 28 40z" />
            <glyph glyph-name="thorn" unicode="&#xfe;" 
                   d="M41 -138v828q0 36 20 58t52 22t52 -22t20 -58v-212h2q18 31 54.5 48.5t75.5 17.5q104 0 170.5 -82t66.5 -189q0 -69 -26 -133t-80.5 -108t-125.5 -44q-79 0 -137 50v-176q0 -36 -20 -58t-52 -22t-52 22t-20 58zM185 262q0 -58 29.5 -100t83.5 -42q52 0 82 45t30 102
q0 56 -30 100.5t-82 44.5q-55 0 -84 -45.5t-29 -104.5z" />
            <glyph glyph-name="ydieresis" unicode="&#xff;" horiz-adv-x="481" 
                   d="M164 42l-159 397q-7 19 -7 37q0 26 22 44t46 18q53 0 72 -51l99 -271l106 271q19 51 72 51q24 0 46 -18t22 -44q0 -22 -7 -37l-241 -600q-23 -57 -68 -57q-35 0 -55 18.5t-20 43.5q0 19 9 42zM279 675q0 30 21 51t51 21t51 -21t21 -51t-21 -51t-51 -21t-51 21t-21 51z
M59 675q0 30 21 51t51 21t51 -21t21 -51t-21 -51t-51 -21t-51 21t-21 51z" />
            <glyph glyph-name="dotlessi" unicode="&#x131;" horiz-adv-x="222" 
                   d="M39 74v384q0 36 20 58t52 22t52 -22t20 -58v-384q0 -36 -20 -58t-52 -22t-52 22t-20 58z" />
            <glyph glyph-name="Lslash" unicode="&#x141;" horiz-adv-x="426" 
                   d="M45 82v158l-39 -30q-13 -10 -31 -10q-20 0 -32 14t-12 38q0 13 7.5 24.5t15.5 18.5t30 23l61 46v276q0 37 21 57.5t54 20.5t54 -20.5t21 -57.5v-162l110 82q18 13 42 13q16 0 30 -13t14 -34q0 -13 -8.5 -25t-17 -19l-25.5 -20l-145 -106v-218h178q36 0 54.5 -22t17.5 -50
q-2 -27 -21.5 -46.5t-50.5 -19.5h-250q-36 0 -57 22t-21 60z" />
            <glyph glyph-name="lslash" unicode="&#x142;" horiz-adv-x="222" 
                   d="M39 74v186l-5 -5q-25 -25 -47 -25q-19 0 -31 14t-12 34t21 41l74 74v297q0 36 20 58t52 22t52 -22t20 -58v-158l5 5q27 27 50 27q18 0 29 -13t11 -32q0 -25 -21 -46l-74 -74v-325q0 -36 -20 -58t-52 -22t-52 22t-20 58z" />
            <glyph glyph-name="OE" unicode="&#x152;" horiz-adv-x="963" 
                   d="M693 574v-146h166q35 0 54 -20.5t19 -48.5t-19.5 -48.5t-53.5 -20.5h-166v-152h187q34 0 52.5 -20.5t18.5 -48.5t-19 -48.5t-52 -20.5h-278q-21 0 -31.5 9t-12 18.5t-1.5 29.5h-2q-51 -69 -194 -69q-151 0 -247.5 105.5t-96.5 262.5q0 158 96.5 263t247.5 105
q121 0 195 -75l2 2q0 39 14 50t58 11h241q34 0 52.5 -20.5t18.5 -48.5t-19 -48.5t-52 -20.5h-178zM173 356q0 -98 48.5 -164t139.5 -66t139.5 66t48.5 164q0 97 -49.5 163.5t-138.5 66.5t-138.5 -66.5t-49.5 -163.5z" />
            <glyph glyph-name="oe" unicode="&#x153;" horiz-adv-x="907" 
                   d="M524 314h229q-6 49 -36 79.5t-78 30.5q-47 0 -78 -31.5t-37 -78.5zM834 218h-307q7 -51 45.5 -77.5t91.5 -26.5q41 0 94 29t68 29q23 0 41 -19t18 -43q0 -45 -76.5 -83.5t-158.5 -38.5q-123 0 -191 83q-68 -83 -181 -83q-114 0 -186 81t-72 196q0 113 73.5 196t184.5 83
q105 0 186 -81q64 81 172 81q104 0 182.5 -78.5t78.5 -183.5q0 -64 -63 -64zM164 265q0 -57 29.5 -101t84.5 -44t84.5 44t29.5 101q0 58 -29.5 102.5t-84.5 44.5t-84.5 -44.5t-29.5 -102.5z" />
            <glyph glyph-name="Scaron" unicode="&#x160;" horiz-adv-x="537" 
                   d="M270 724q35 0 76.5 -7.5t80.5 -32t39 -60.5q0 -30 -18.5 -52t-48.5 -22q-18 0 -59.5 15t-73.5 15q-34 0 -58 -17.5t-24 -47.5q0 -28 34.5 -45t83.5 -30t98 -33.5t83.5 -67.5t34.5 -119q0 -104 -74.5 -168t-181.5 -64q-35 0 -71.5 4.5t-78 15.5t-67.5 35t-26 57
q0 30 18.5 50.5t48.5 20.5q21 0 77 -19.5t91 -19.5q48 0 75 24t27 62q0 32 -34.5 51.5t-83.5 32t-98 30.5t-83.5 59.5t-34.5 105.5q0 102 72.5 164.5t175.5 62.5zM269 754l-106 43q-46 17 -46 61q0 24 18.5 44t42.5 20q9 0 52 -18l39 -17l39 17q43 18 52 18q24 0 42.5 -20
t18.5 -44q0 -42 -46 -61z" />
            <glyph glyph-name="scaron" unicode="&#x161;" horiz-adv-x="426" 
                   d="M403 440q0 -25 -17 -44.5t-42 -19.5q-11 0 -57 21t-72 21q-21 0 -35 -10t-14 -30q0 -18 26 -32.5t62.5 -27.5t73 -31t62.5 -51t26 -79q0 -73 -56.5 -121t-148.5 -48q-67 0 -134 32.5t-67 78.5q0 20 17.5 42t44.5 22q26 0 70 -24.5t79 -24.5q32 0 44.5 10t12.5 31
q0 18 -26 32t-62.5 27.5t-73 31t-62.5 51t-26 79.5q0 75 54.5 121.5t140.5 46.5q39 0 78.5 -10.5t70.5 -35.5t31 -58zM213 592l-106 43q-46 17 -46 61q0 24 18.5 44t42.5 20q9 0 52 -18l39 -17l39 17q43 18 52 18q24 0 42.5 -20t18.5 -44q0 -42 -46 -61z" />
            <glyph glyph-name="Ydieresis" unicode="&#x178;" horiz-adv-x="536" 
                   d="M193 67v267l-189 266q-14 20 -14 45q0 30 20.5 51.5t51.5 21.5q41 0 62 -30l144 -209l144 209q21 30 62 30q31 0 51.5 -21.5t20.5 -51.5q0 -25 -14 -45l-189 -266v-267q0 -31 -19 -52t-56 -21t-56 21t-19 52zM306 837q0 30 21 51t51 21t51 -21t21 -51t-21 -51t-51 -21
t-51 21t-21 51zM86 837q0 30 21 51t51 21t51 -21t21 -51t-21 -51t-51 -21t-51 21t-21 51z" />
            <glyph glyph-name="Zcaron" unicode="&#x17d;" horiz-adv-x="593" 
                   d="M209 132h290q32 0 52 -17.5t20 -48.5q0 -28 -22 -47t-50 -19h-393q-39 0 -61.5 20t-22.5 52q0 30 20 58l322 450h-263q-31 0 -50.5 17t-19.5 47q0 28 20.5 48t49.5 20h366q41 0 62.5 -21.5t21.5 -50.5q0 -35 -22 -64zM297 754l-106 43q-46 17 -46 61q0 24 18.5 44
t42.5 20q9 0 52 -18l39 -17l39 17q43 18 52 18q24 0 42.5 -20t18.5 -44q0 -42 -46 -61z" />
            <glyph glyph-name="zcaron" unicode="&#x17e;" horiz-adv-x="481" 
                   d="M24 88l226 318h-167q-28 0 -46.5 17t-18.5 46t18.5 46t46.5 17h327q9 0 18.5 -2.5t19 -13.5t9.5 -29q0 -23 -15 -43l-227 -318h190q28 0 46.5 -17t18.5 -46t-18.5 -46t-46.5 -17h-335q-25 0 -42 12.5t-17 36.5q0 18 13 39zM241 592l-106 43q-46 17 -46 61q0 24 18.5 44
t42.5 20q9 0 52 -18l39 -17l39 17q43 18 52 18q24 0 42.5 -20t18.5 -44q0 -42 -46 -61z" />
            <glyph glyph-name="florin" unicode="&#x192;" 
                   d="M221 423l29 151q25 150 165 150q98 0 98 -68q0 -58 -78 -58q-36 0 -46 -54l-22 -121h35q33 0 51.5 -16t18.5 -46q0 -35 -23.5 -49.5t-71.5 -14.5h-33l-63 -346q-14 -80 -53.5 -124.5t-116.5 -44.5q-97 0 -97 65q0 17 6 29.5t13.5 18.5t20.5 9t20 3.5t19 0.5q34 0 45 62
l61 327h-25q-34 0 -51 17.5t-17 43.5q0 32 20.5 48.5t54.5 16.5h40z" />
            <glyph glyph-name="circumflex" unicode="&#x2c6;" horiz-adv-x="222" 
                   d="M5 721l106 43l106 -43q46 -19 46 -61q0 -24 -18.5 -44t-42.5 -20q-9 0 -52 18l-39 17l-39 -17q-43 -18 -52 -18q-24 0 -42.5 20t-18.5 44q0 44 46 61z" />
            <glyph glyph-name="caron" unicode="&#x2c7;" horiz-adv-x="222" 
                   d="M111 592l-106 43q-46 17 -46 61q0 24 18.5 44t42.5 20q9 0 52 -18l39 -17l39 17q43 18 52 18q24 0 42.5 -20t18.5 -44q0 -42 -46 -61z" />
            <glyph glyph-name="breve" unicode="&#x2d8;" horiz-adv-x="222" 
                   d="M-44 701q0 24 11 42t34 18q21 0 35 -10.5t20 -23.5t20 -23.5t35 -10.5q18 0 31 10.5t20 23.5t22 23.5t37 10.5q18 0 31.5 -19.5t13.5 -40.5q0 -49 -50.5 -76.5t-104.5 -27.5q-56 0 -105.5 26.5t-49.5 77.5z" />
            <glyph glyph-name="dotaccent" unicode="&#x2d9;" horiz-adv-x="222" 
                   d="M39 675q0 30 21 51t51 21t51 -21t21 -51t-21 -51t-51 -21t-51 21t-21 51z" />
            <glyph glyph-name="ring" unicode="&#x2da;" horiz-adv-x="222" 
                   d="M12 678q0 41 29 70t70 29t70 -29t29 -70t-29 -70t-70 -29t-70 29t-29 70zM66 678q0 -19 13 -32t32 -13t32 13t13 32t-13 32t-32 13t-32 -13t-13 -32z" />
            <glyph glyph-name="ogonek" unicode="&#x2db;" horiz-adv-x="222" 
                   d="M122 0h69q-30 -15 -57 -48.5t-27 -64.5q0 -39 35 -39q8 0 19.5 3.5t19.5 3.5q21 0 21 -22t-29.5 -36.5t-69.5 -14.5q-41 0 -66.5 22.5t-25.5 61.5q0 42 36 80t75 54z" />
            <glyph glyph-name="tilde" unicode="&#x2dc;" horiz-adv-x="222" 
                   d="M-5 605q-19 0 -34.5 16.5t-15.5 35.5q0 40 27.5 64t67.5 24q26 0 64.5 -12.5t47.5 -12.5t36.5 14.5t41.5 14.5q22 0 34.5 -16.5t12.5 -39.5q0 -36 -30.5 -61.5t-67.5 -25.5q-18 0 -60.5 12.5t-52.5 12.5q-11 0 -32 -13t-39 -13z" />
            <glyph glyph-name="hungarumlaut" unicode="&#x2dd;" horiz-adv-x="222" 
                   d="M-115 715l118 48q25 10 38 10q21 0 37.5 -20t16.5 -42q0 -44 -41 -59l-112 -44q-7 -2 -13 -4.5t-7.5 -3.5t-5 -1.5t-5.5 -0.5h-9q-22 0 -37.5 23t-15.5 50q0 25 28 40zM163 715l118 48q25 10 38 10q21 0 37.5 -20t16.5 -42q0 -44 -41 -59l-112 -44q-7 -2 -13 -4.5
t-7.5 -3.5t-5 -1.5t-5.5 -0.5h-9q-22 0 -37.5 23t-15.5 50q0 25 28 40z" />
            <glyph glyph-name="endash" unicode="&#x2013;" horiz-adv-x="500" 
                   d="M60 350h380q28 0 44 -16.5t16 -43.5t-16 -43.5t-44 -16.5h-380q-28 0 -44 16.5t-16 43.5t16 43.5t44 16.5z" />
            <glyph glyph-name="emdash" unicode="&#x2014;" horiz-adv-x="1000" 
                   d="M0 350h1000q28 0 44 -16.5t16 -43.5t-16 -43.5t-44 -16.5h-1000q-28 0 -44 16.5t-16 43.5t16 43.5t44 16.5z" />
            <glyph glyph-name="quoteleft" unicode="&#x2018;" horiz-adv-x="240" 
                   d="M218 618l-84 -150q-8 -16 -25.5 -25t-31.5 -9q-27 0 -47.5 19.5t-20.5 46.5q0 14 12 40l83 150q9 16 26.5 25t31.5 9q27 0 48 -19.5t21 -46.5q0 -12 -13 -40z" />
            <glyph glyph-name="quoteright" unicode="&#x2019;" horiz-adv-x="240" 
                   d="M218 618l-84 -150q-8 -16 -25.5 -25t-31.5 -9q-27 0 -47.5 19.5t-20.5 46.5q0 14 12 40l83 150q9 16 26.5 25t31.5 9q27 0 48 -19.5t21 -46.5q0 -12 -13 -40z" />
            <glyph glyph-name="quotesinglbase" unicode="&#x201a;" horiz-adv-x="240" 
                   d="M218 50l-84 -150q-8 -16 -25.5 -25t-31.5 -9q-27 0 -47.5 19.5t-20.5 46.5q0 14 12 40l83 150q9 16 26.5 25t31.5 9q27 0 48 -19.5t21 -46.5q0 -12 -13 -40z" />
            <glyph glyph-name="quotedblleft" unicode="&#x201c;" horiz-adv-x="444" 
                   d="M422 618l-84 -150q-8 -16 -25.5 -25t-31.5 -9q-27 0 -47.5 19.5t-20.5 46.5q0 14 12 40l83 150q9 16 26.5 25t31.5 9q27 0 48 -19.5t21 -46.5q0 -12 -13 -40zM218 618l-84 -150q-8 -16 -25.5 -25t-31.5 -9q-27 0 -47.5 19.5t-20.5 46.5q0 14 12 40l83 150q9 16 26.5 25
t31.5 9q27 0 48 -19.5t21 -46.5q0 -12 -13 -40z" />
            <glyph glyph-name="quotedblright" unicode="&#x201d;" horiz-adv-x="444" 
                   d="M422 618l-84 -150q-8 -16 -25.5 -25t-31.5 -9q-27 0 -47.5 19.5t-20.5 46.5q0 14 12 40l83 150q9 16 26.5 25t31.5 9q27 0 48 -19.5t21 -46.5q0 -12 -13 -40zM218 618l-84 -150q-8 -16 -25.5 -25t-31.5 -9q-27 0 -47.5 19.5t-20.5 46.5q0 14 12 40l83 150q9 16 26.5 25
t31.5 9q27 0 48 -19.5t21 -46.5q0 -12 -13 -40z" />
            <glyph glyph-name="quotedblbase" unicode="&#x201e;" horiz-adv-x="444" 
                   d="M422 50l-84 -150q-8 -16 -25.5 -25t-31.5 -9q-27 0 -47.5 19.5t-20.5 46.5q0 14 12 40l83 150q9 16 26.5 25t31.5 9q27 0 48 -19.5t21 -46.5q0 -12 -13 -40zM218 50l-84 -150q-8 -16 -25.5 -25t-31.5 -9q-27 0 -47.5 19.5t-20.5 46.5q0 14 12 40l83 150q9 16 26.5 25
t31.5 9q27 0 48 -19.5t21 -46.5q0 -12 -13 -40z" />
            <glyph glyph-name="dagger" unicode="&#x2020;" horiz-adv-x="630" 
                   d="M246 -149v525h-164q-26 0 -41.5 16.5t-15.5 46.5t15.5 46.5t41.5 16.5h164v153q0 33 18.5 51t50.5 18t50.5 -18t18.5 -51v-153h164q26 0 41.5 -16.5t15.5 -46.5t-15.5 -46.5t-41.5 -16.5h-164v-525q0 -33 -18.5 -51t-50.5 -18t-50.5 18t-18.5 51z" />
            <glyph glyph-name="daggerdbl" unicode="&#x2021;" horiz-adv-x="630" 
                   d="M246 -149v155h-164q-26 0 -41.5 16.5t-15.5 46.5t15.5 46.5t41.5 16.5h164v244h-164q-26 0 -41.5 16.5t-15.5 46.5t15.5 46.5t41.5 16.5h164v153q0 33 18.5 51t50.5 18t50.5 -18t18.5 -51v-153h164q26 0 41.5 -16.5t15.5 -46.5t-15.5 -46.5t-41.5 -16.5h-164v-244h164
q26 0 41.5 -16.5t15.5 -46.5t-15.5 -46.5t-41.5 -16.5h-164v-155q0 -33 -18.5 -51t-50.5 -18t-50.5 18t-18.5 51z" />
            <glyph glyph-name="bullet" unicode="&#x2022;" horiz-adv-x="500" 
                   d="M72 356q0 74 52 126t126 52t126 -52t52 -126t-52 -126t-126 -52t-126 52t-52 126z" />
            <glyph glyph-name="ellipsis" unicode="&#x2026;" horiz-adv-x="1000" 
                   d="M89 66q0 32 23 55t55 23t55 -23t23 -55t-23 -55t-55 -23t-55 23t-23 55zM422 66q0 32 23 55t55 23t55 -23t23 -55t-23 -55t-55 -23t-55 23t-23 55zM755 66q0 32 23 55t55 23t55 -23t23 -55t-23 -55t-55 -23t-55 23t-23 55z" />
            <glyph glyph-name="perthousand" unicode="&#x2030;" horiz-adv-x="1074" 
                   d="M889 -12q-66 0 -110 47.5t-44 113.5t44 114t110 48t110 -48t44 -114t-44 -113.5t-110 -47.5zM889 90q24 0 38 17t14 42t-14 42.5t-38 17.5t-38 -17.5t-14 -42.5t14 -42t38 -17zM185 503q24 0 38 17t14 42t-14 42.5t-38 17.5t-38 -17.5t-14 -42.5t14 -42t38 -17zM149 74
l331 624q10 19 19.5 25.5t26.5 6.5q24 0 41.5 -16.5t17.5 -39.5q0 -15 -8 -30l-336 -629q-1 -2 -4.5 -6.5t-4.5 -6t-4 -5t-4 -5t-4 -4t-5 -3t-5 -1.5t-6.5 -1.5t-7.5 -0.5q-20 0 -38.5 16.5t-18.5 38.5q0 17 10 37zM185 401q-66 0 -110 47.5t-44 113.5t44 114t110 48
t110 -48t44 -114t-44 -113.5t-110 -47.5zM537 -12q-66 0 -110 47.5t-44 113.5t44 114t110 48t110 -48t44 -114t-44 -113.5t-110 -47.5zM537 90q24 0 38 17t14 42t-14 42.5t-38 17.5t-38 -17.5t-14 -42.5t14 -42t38 -17z" />
            <glyph glyph-name="guilsinglleft" unicode="&#x2039;" horiz-adv-x="296" 
                   d="M169 281l79 -119q11 -16 11 -34q0 -27 -16.5 -45t-43.5 -18q-33 0 -50 25l-103 159q-9 13 -9 36q0 22 24 56l97 137q15 17 43 17q26 0 42 -16t16 -39t-11 -38z" />
            <glyph glyph-name="guilsinglright" unicode="&#x203a;" horiz-adv-x="296" 
                   d="M48 158l79 121l-79 119q-11 16 -11 34q0 27 16.5 45t43.5 18q33 0 50 -25l103 -159q9 -13 9 -36q0 -22 -24 -56l-97 -137q-15 -17 -43 -17q-26 0 -42 16t-16 39t11 38z" />
            <glyph glyph-name="fraction" unicode="&#x2044;" horiz-adv-x="166" 
                   d="M-130 74l331 624q10 19 19.5 25.5t26.5 6.5q24 0 41.5 -16.5t17.5 -39.5q0 -15 -8 -30l-336 -629q-1 -2 -4.5 -6.5t-4.5 -6t-4 -5t-4 -5t-4 -4t-5 -3t-5 -1.5t-6.5 -1.5t-7.5 -0.5q-20 0 -38.5 16.5t-18.5 38.5q0 17 10 37z" />
            <glyph glyph-name="fraction" unicode="&#x2215;" horiz-adv-x="166" 
                   d="M-130 74l331 624q10 19 19.5 25.5t26.5 6.5q24 0 41.5 -16.5t17.5 -39.5q0 -15 -8 -30l-336 -629q-1 -2 -4.5 -6.5t-4.5 -6t-4 -5t-4 -5t-4 -4t-5 -3t-5 -1.5t-6.5 -1.5t-7.5 -0.5q-20 0 -38.5 16.5t-18.5 38.5q0 17 10 37z" />
            <glyph glyph-name="Euro" unicode="&#x20ac;" 
                   d="M529 571h-25q-16 100 -117 100q-70 0 -104 -60.5t-44 -178.5h236l-20 -49h-217q-1 -10 -1 -32v-32h192l-20 -49h-170q7 -111 45 -170t104 -59q45 0 76.5 24.5t39.5 74.5h25l-7 -97q-51 -54 -169 -54q-236 0 -264 281h-71l20 49h44q-1 10 -1 34q0 21 1 30h-64l20 49h48
q16 144 78.5 218t188.5 74q119 0 169 -52z" />
            <glyph glyph-name="trademark" unicode="&#x2122;" horiz-adv-x="1000" 
                   d="M166 360v262h-79q-20 0 -32.5 11.5t-12.5 33.5t12.5 33.5t32.5 11.5h278q20 0 32.5 -11.5t12.5 -33.5t-12.5 -33.5t-32.5 -11.5h-79v-262q0 -27 -16 -43.5t-44 -16.5t-44 16.5t-16 43.5zM468 360v296q0 62 85 62q32 0 52 -11.5t37 -50.5l71 -182l71 182q17 39 37 50.5
t52 11.5q85 0 85 -62v-296q0 -29 -12 -44.5t-42 -15.5t-42 15.5t-12 44.5v208h-2l-72 -208q-8 -21 -13 -31.5t-18 -19.5t-32 -9q-28 0 -40 14t-23 46l-72 208h-2v-208q0 -29 -12 -44.5t-42 -15.5t-42 15.5t-12 44.5z" />
            <glyph glyph-name="minus" unicode="&#x2212;" horiz-adv-x="600" 
                   d="M95 313h410q28 0 44 -16.5t16 -43.5t-16 -43.5t-44 -16.5h-410q-28 0 -44 16.5t-16 43.5t16 43.5t44 16.5z" />
            <glyph glyph-name="fi" unicode="&#xfb01;" horiz-adv-x="519" 
                   d="M74 74v332h-32q-29 0 -46 17t-17 46q0 27 18 45t45 18h32v74q0 78 41.5 121t109.5 43q35 0 61.5 -15.5t26.5 -49.5q0 -61 -53 -61q-12 0 -17.5 -1t-12 -5.5t-9.5 -16t-3 -30.5v-59h35q70 0 70 -63q0 -23 -4.5 -36.5t-15.5 -19t-20.5 -6.5t-29.5 -1h-35v-332
q0 -36 -20 -58t-52 -22t-52 22t-20 58zM336 74v384q0 36 20 58t52 22t52 -22t20 -58v-384q0 -36 -20 -58t-52 -22t-52 22t-20 58zM408 754q32 0 56.5 -24t24.5 -55q0 -34 -23.5 -58.5t-57.5 -24.5q-32 0 -56.5 25t-24.5 58q0 31 24.5 55t56.5 24z" />
            <glyph glyph-name="fl" unicode="&#xfb02;" horiz-adv-x="519" 
                   d="M74 74v332h-32q-29 0 -46 17t-17 46q0 27 18 45t45 18h32v74q0 78 41.5 121t109.5 43q35 0 61.5 -15.5t26.5 -49.5q0 -61 -53 -61q-12 0 -17.5 -1t-12 -5.5t-9.5 -16t-3 -30.5v-59h35q70 0 70 -63q0 -23 -4.5 -36.5t-15.5 -19t-20.5 -6.5t-29.5 -1h-35v-332
q0 -36 -20 -58t-52 -22t-52 22t-20 58zM336 74v616q0 36 20 58t52 22t52 -22t20 -58v-616q0 -36 -20 -58t-52 -22t-52 22t-20 58z" />
            </font>
</defs>
</svg>
